<?xml version="1.0" encoding="utf-8" standalone="no"?>
<!DOCTYPE svg PUBLIC "-//W3C//DTD SVG 1.1//EN"
  "http://www.w3.org/Graphics/SVG/1.1/DTD/svg11.dtd">
<!-- Created with matplotlib (https://matplotlib.org/) -->
<svg height="720pt" version="1.1" viewBox="0 0 1440 720" width="1440pt" xmlns="http://www.w3.org/2000/svg" xmlns:xlink="http://www.w3.org/1999/xlink">
 <metadata>
  <rdf:RDF xmlns:cc="http://creativecommons.org/ns#" xmlns:dc="http://purl.org/dc/elements/1.1/" xmlns:rdf="http://www.w3.org/1999/02/22-rdf-syntax-ns#">
   <cc:Work>
    <dc:type rdf:resource="http://purl.org/dc/dcmitype/StillImage"/>
    <dc:date>2020-12-31T17:36:53.705282</dc:date>
    <dc:format>image/svg+xml</dc:format>
    <dc:creator>
     <cc:Agent>
      <dc:title>Matplotlib v3.3.3, https://matplotlib.org/</dc:title>
     </cc:Agent>
    </dc:creator>
   </cc:Work>
  </rdf:RDF>
 </metadata>
 <defs>
  <style type="text/css">*{stroke-linecap:butt;stroke-linejoin:round;}</style>
 </defs>
 <g id="figure_1">
  <g id="patch_1">
   <path d="M 0 720 
L 1440 720 
L 1440 0 
L 0 0 
z
" style="fill:none;"/>
  </g>
  <g id="axes_1">
   <g id="patch_2">
    <path d="M 180 630 
L 1296 630 
L 1296 86.4 
L 180 86.4 
z
" style="fill:#ffffff;"/>
   </g>
   <g id="matplotlib.axis_1">
    <g id="xtick_1">
     <g id="line2d_1">
      <defs>
       <path d="M 0 0 
L 0 3.5 
" id="mce3f2cb469" style="stroke:#000000;stroke-width:0.8;"/>
      </defs>
      <g>
       <use style="stroke:#000000;stroke-width:0.8;" x="230.727273" xlink:href="#mce3f2cb469" y="630"/>
      </g>
     </g>
     <g id="text_1">
      <!-- 0 -->
      <g transform="translate(227.546023 644.598438)scale(0.1 -0.1)">
       <defs>
        <path d="M 31.78125 66.40625 
Q 24.171875 66.40625 20.328125 58.90625 
Q 16.5 51.421875 16.5 36.375 
Q 16.5 21.390625 20.328125 13.890625 
Q 24.171875 6.390625 31.78125 6.390625 
Q 39.453125 6.390625 43.28125 13.890625 
Q 47.125 21.390625 47.125 36.375 
Q 47.125 51.421875 43.28125 58.90625 
Q 39.453125 66.40625 31.78125 66.40625 
z
M 31.78125 74.21875 
Q 44.046875 74.21875 50.515625 64.515625 
Q 56.984375 54.828125 56.984375 36.375 
Q 56.984375 17.96875 50.515625 8.265625 
Q 44.046875 -1.421875 31.78125 -1.421875 
Q 19.53125 -1.421875 13.0625 8.265625 
Q 6.59375 17.96875 6.59375 36.375 
Q 6.59375 54.828125 13.0625 64.515625 
Q 19.53125 74.21875 31.78125 74.21875 
z
" id="DejaVuSans-48"/>
       </defs>
       <use xlink:href="#DejaVuSans-48"/>
      </g>
     </g>
    </g>
    <g id="xtick_2">
     <g id="line2d_2">
      <g>
       <use style="stroke:#000000;stroke-width:0.8;" x="364.926407" xlink:href="#mce3f2cb469" y="630"/>
      </g>
     </g>
     <g id="text_2">
      <!-- 50 -->
      <g transform="translate(358.563907 644.598438)scale(0.1 -0.1)">
       <defs>
        <path d="M 10.796875 72.90625 
L 49.515625 72.90625 
L 49.515625 64.59375 
L 19.828125 64.59375 
L 19.828125 46.734375 
Q 21.96875 47.46875 24.109375 47.828125 
Q 26.265625 48.1875 28.421875 48.1875 
Q 40.625 48.1875 47.75 41.5 
Q 54.890625 34.8125 54.890625 23.390625 
Q 54.890625 11.625 47.5625 5.09375 
Q 40.234375 -1.421875 26.90625 -1.421875 
Q 22.3125 -1.421875 17.546875 -0.640625 
Q 12.796875 0.140625 7.71875 1.703125 
L 7.71875 11.625 
Q 12.109375 9.234375 16.796875 8.0625 
Q 21.484375 6.890625 26.703125 6.890625 
Q 35.15625 6.890625 40.078125 11.328125 
Q 45.015625 15.765625 45.015625 23.390625 
Q 45.015625 31 40.078125 35.4375 
Q 35.15625 39.890625 26.703125 39.890625 
Q 22.75 39.890625 18.8125 39.015625 
Q 14.890625 38.140625 10.796875 36.28125 
z
" id="DejaVuSans-53"/>
       </defs>
       <use xlink:href="#DejaVuSans-53"/>
       <use x="63.623047" xlink:href="#DejaVuSans-48"/>
      </g>
     </g>
    </g>
    <g id="xtick_3">
     <g id="line2d_3">
      <g>
       <use style="stroke:#000000;stroke-width:0.8;" x="499.125541" xlink:href="#mce3f2cb469" y="630"/>
      </g>
     </g>
     <g id="text_3">
      <!-- 100 -->
      <g transform="translate(489.581791 644.598438)scale(0.1 -0.1)">
       <defs>
        <path d="M 12.40625 8.296875 
L 28.515625 8.296875 
L 28.515625 63.921875 
L 10.984375 60.40625 
L 10.984375 69.390625 
L 28.421875 72.90625 
L 38.28125 72.90625 
L 38.28125 8.296875 
L 54.390625 8.296875 
L 54.390625 0 
L 12.40625 0 
z
" id="DejaVuSans-49"/>
       </defs>
       <use xlink:href="#DejaVuSans-49"/>
       <use x="63.623047" xlink:href="#DejaVuSans-48"/>
       <use x="127.246094" xlink:href="#DejaVuSans-48"/>
      </g>
     </g>
    </g>
    <g id="xtick_4">
     <g id="line2d_4">
      <g>
       <use style="stroke:#000000;stroke-width:0.8;" x="633.324675" xlink:href="#mce3f2cb469" y="630"/>
      </g>
     </g>
     <g id="text_4">
      <!-- 150 -->
      <g transform="translate(623.780925 644.598438)scale(0.1 -0.1)">
       <use xlink:href="#DejaVuSans-49"/>
       <use x="63.623047" xlink:href="#DejaVuSans-53"/>
       <use x="127.246094" xlink:href="#DejaVuSans-48"/>
      </g>
     </g>
    </g>
    <g id="xtick_5">
     <g id="line2d_5">
      <g>
       <use style="stroke:#000000;stroke-width:0.8;" x="767.52381" xlink:href="#mce3f2cb469" y="630"/>
      </g>
     </g>
     <g id="text_5">
      <!-- 200 -->
      <g transform="translate(757.98006 644.598438)scale(0.1 -0.1)">
       <defs>
        <path d="M 19.1875 8.296875 
L 53.609375 8.296875 
L 53.609375 0 
L 7.328125 0 
L 7.328125 8.296875 
Q 12.9375 14.109375 22.625 23.890625 
Q 32.328125 33.6875 34.8125 36.53125 
Q 39.546875 41.84375 41.421875 45.53125 
Q 43.3125 49.21875 43.3125 52.78125 
Q 43.3125 58.59375 39.234375 62.25 
Q 35.15625 65.921875 28.609375 65.921875 
Q 23.96875 65.921875 18.8125 64.3125 
Q 13.671875 62.703125 7.8125 59.421875 
L 7.8125 69.390625 
Q 13.765625 71.78125 18.9375 73 
Q 24.125 74.21875 28.421875 74.21875 
Q 39.75 74.21875 46.484375 68.546875 
Q 53.21875 62.890625 53.21875 53.421875 
Q 53.21875 48.921875 51.53125 44.890625 
Q 49.859375 40.875 45.40625 35.40625 
Q 44.1875 33.984375 37.640625 27.21875 
Q 31.109375 20.453125 19.1875 8.296875 
z
" id="DejaVuSans-50"/>
       </defs>
       <use xlink:href="#DejaVuSans-50"/>
       <use x="63.623047" xlink:href="#DejaVuSans-48"/>
       <use x="127.246094" xlink:href="#DejaVuSans-48"/>
      </g>
     </g>
    </g>
    <g id="xtick_6">
     <g id="line2d_6">
      <g>
       <use style="stroke:#000000;stroke-width:0.8;" x="901.722944" xlink:href="#mce3f2cb469" y="630"/>
      </g>
     </g>
     <g id="text_6">
      <!-- 250 -->
      <g transform="translate(892.179194 644.598438)scale(0.1 -0.1)">
       <use xlink:href="#DejaVuSans-50"/>
       <use x="63.623047" xlink:href="#DejaVuSans-53"/>
       <use x="127.246094" xlink:href="#DejaVuSans-48"/>
      </g>
     </g>
    </g>
    <g id="xtick_7">
     <g id="line2d_7">
      <g>
       <use style="stroke:#000000;stroke-width:0.8;" x="1035.922078" xlink:href="#mce3f2cb469" y="630"/>
      </g>
     </g>
     <g id="text_7">
      <!-- 300 -->
      <g transform="translate(1026.378328 644.598438)scale(0.1 -0.1)">
       <defs>
        <path d="M 40.578125 39.3125 
Q 47.65625 37.796875 51.625 33 
Q 55.609375 28.21875 55.609375 21.1875 
Q 55.609375 10.40625 48.1875 4.484375 
Q 40.765625 -1.421875 27.09375 -1.421875 
Q 22.515625 -1.421875 17.65625 -0.515625 
Q 12.796875 0.390625 7.625 2.203125 
L 7.625 11.71875 
Q 11.71875 9.328125 16.59375 8.109375 
Q 21.484375 6.890625 26.8125 6.890625 
Q 36.078125 6.890625 40.9375 10.546875 
Q 45.796875 14.203125 45.796875 21.1875 
Q 45.796875 27.640625 41.28125 31.265625 
Q 36.765625 34.90625 28.71875 34.90625 
L 20.21875 34.90625 
L 20.21875 43.015625 
L 29.109375 43.015625 
Q 36.375 43.015625 40.234375 45.921875 
Q 44.09375 48.828125 44.09375 54.296875 
Q 44.09375 59.90625 40.109375 62.90625 
Q 36.140625 65.921875 28.71875 65.921875 
Q 24.65625 65.921875 20.015625 65.03125 
Q 15.375 64.15625 9.8125 62.3125 
L 9.8125 71.09375 
Q 15.4375 72.65625 20.34375 73.4375 
Q 25.25 74.21875 29.59375 74.21875 
Q 40.828125 74.21875 47.359375 69.109375 
Q 53.90625 64.015625 53.90625 55.328125 
Q 53.90625 49.265625 50.4375 45.09375 
Q 46.96875 40.921875 40.578125 39.3125 
z
" id="DejaVuSans-51"/>
       </defs>
       <use xlink:href="#DejaVuSans-51"/>
       <use x="63.623047" xlink:href="#DejaVuSans-48"/>
       <use x="127.246094" xlink:href="#DejaVuSans-48"/>
      </g>
     </g>
    </g>
    <g id="xtick_8">
     <g id="line2d_8">
      <g>
       <use style="stroke:#000000;stroke-width:0.8;" x="1170.121212" xlink:href="#mce3f2cb469" y="630"/>
      </g>
     </g>
     <g id="text_8">
      <!-- 350 -->
      <g transform="translate(1160.577462 644.598438)scale(0.1 -0.1)">
       <use xlink:href="#DejaVuSans-51"/>
       <use x="63.623047" xlink:href="#DejaVuSans-53"/>
       <use x="127.246094" xlink:href="#DejaVuSans-48"/>
      </g>
     </g>
    </g>
    <g id="text_9">
     <!-- Episode # -->
     <g transform="translate(707.500312 659.79625)scale(0.12 -0.12)">
      <defs>
       <path d="M 9.8125 72.90625 
L 55.90625 72.90625 
L 55.90625 64.59375 
L 19.671875 64.59375 
L 19.671875 43.015625 
L 54.390625 43.015625 
L 54.390625 34.71875 
L 19.671875 34.71875 
L 19.671875 8.296875 
L 56.78125 8.296875 
L 56.78125 0 
L 9.8125 0 
z
" id="DejaVuSans-69"/>
       <path d="M 18.109375 8.203125 
L 18.109375 -20.796875 
L 9.078125 -20.796875 
L 9.078125 54.6875 
L 18.109375 54.6875 
L 18.109375 46.390625 
Q 20.953125 51.265625 25.265625 53.625 
Q 29.59375 56 35.59375 56 
Q 45.5625 56 51.78125 48.09375 
Q 58.015625 40.1875 58.015625 27.296875 
Q 58.015625 14.40625 51.78125 6.484375 
Q 45.5625 -1.421875 35.59375 -1.421875 
Q 29.59375 -1.421875 25.265625 0.953125 
Q 20.953125 3.328125 18.109375 8.203125 
z
M 48.6875 27.296875 
Q 48.6875 37.203125 44.609375 42.84375 
Q 40.53125 48.484375 33.40625 48.484375 
Q 26.265625 48.484375 22.1875 42.84375 
Q 18.109375 37.203125 18.109375 27.296875 
Q 18.109375 17.390625 22.1875 11.75 
Q 26.265625 6.109375 33.40625 6.109375 
Q 40.53125 6.109375 44.609375 11.75 
Q 48.6875 17.390625 48.6875 27.296875 
z
" id="DejaVuSans-112"/>
       <path d="M 9.421875 54.6875 
L 18.40625 54.6875 
L 18.40625 0 
L 9.421875 0 
z
M 9.421875 75.984375 
L 18.40625 75.984375 
L 18.40625 64.59375 
L 9.421875 64.59375 
z
" id="DejaVuSans-105"/>
       <path d="M 44.28125 53.078125 
L 44.28125 44.578125 
Q 40.484375 46.53125 36.375 47.5 
Q 32.28125 48.484375 27.875 48.484375 
Q 21.1875 48.484375 17.84375 46.4375 
Q 14.5 44.390625 14.5 40.28125 
Q 14.5 37.15625 16.890625 35.375 
Q 19.28125 33.59375 26.515625 31.984375 
L 29.59375 31.296875 
Q 39.15625 29.25 43.1875 25.515625 
Q 47.21875 21.78125 47.21875 15.09375 
Q 47.21875 7.46875 41.1875 3.015625 
Q 35.15625 -1.421875 24.609375 -1.421875 
Q 20.21875 -1.421875 15.453125 -0.5625 
Q 10.6875 0.296875 5.421875 2 
L 5.421875 11.28125 
Q 10.40625 8.6875 15.234375 7.390625 
Q 20.0625 6.109375 24.8125 6.109375 
Q 31.15625 6.109375 34.5625 8.28125 
Q 37.984375 10.453125 37.984375 14.40625 
Q 37.984375 18.0625 35.515625 20.015625 
Q 33.0625 21.96875 24.703125 23.78125 
L 21.578125 24.515625 
Q 13.234375 26.265625 9.515625 29.90625 
Q 5.8125 33.546875 5.8125 39.890625 
Q 5.8125 47.609375 11.28125 51.796875 
Q 16.75 56 26.8125 56 
Q 31.78125 56 36.171875 55.265625 
Q 40.578125 54.546875 44.28125 53.078125 
z
" id="DejaVuSans-115"/>
       <path d="M 30.609375 48.390625 
Q 23.390625 48.390625 19.1875 42.75 
Q 14.984375 37.109375 14.984375 27.296875 
Q 14.984375 17.484375 19.15625 11.84375 
Q 23.34375 6.203125 30.609375 6.203125 
Q 37.796875 6.203125 41.984375 11.859375 
Q 46.1875 17.53125 46.1875 27.296875 
Q 46.1875 37.015625 41.984375 42.703125 
Q 37.796875 48.390625 30.609375 48.390625 
z
M 30.609375 56 
Q 42.328125 56 49.015625 48.375 
Q 55.71875 40.765625 55.71875 27.296875 
Q 55.71875 13.875 49.015625 6.21875 
Q 42.328125 -1.421875 30.609375 -1.421875 
Q 18.84375 -1.421875 12.171875 6.21875 
Q 5.515625 13.875 5.515625 27.296875 
Q 5.515625 40.765625 12.171875 48.375 
Q 18.84375 56 30.609375 56 
z
" id="DejaVuSans-111"/>
       <path d="M 45.40625 46.390625 
L 45.40625 75.984375 
L 54.390625 75.984375 
L 54.390625 0 
L 45.40625 0 
L 45.40625 8.203125 
Q 42.578125 3.328125 38.25 0.953125 
Q 33.9375 -1.421875 27.875 -1.421875 
Q 17.96875 -1.421875 11.734375 6.484375 
Q 5.515625 14.40625 5.515625 27.296875 
Q 5.515625 40.1875 11.734375 48.09375 
Q 17.96875 56 27.875 56 
Q 33.9375 56 38.25 53.625 
Q 42.578125 51.265625 45.40625 46.390625 
z
M 14.796875 27.296875 
Q 14.796875 17.390625 18.875 11.75 
Q 22.953125 6.109375 30.078125 6.109375 
Q 37.203125 6.109375 41.296875 11.75 
Q 45.40625 17.390625 45.40625 27.296875 
Q 45.40625 37.203125 41.296875 42.84375 
Q 37.203125 48.484375 30.078125 48.484375 
Q 22.953125 48.484375 18.875 42.84375 
Q 14.796875 37.203125 14.796875 27.296875 
z
" id="DejaVuSans-100"/>
       <path d="M 56.203125 29.59375 
L 56.203125 25.203125 
L 14.890625 25.203125 
Q 15.484375 15.921875 20.484375 11.0625 
Q 25.484375 6.203125 34.421875 6.203125 
Q 39.59375 6.203125 44.453125 7.46875 
Q 49.3125 8.734375 54.109375 11.28125 
L 54.109375 2.78125 
Q 49.265625 0.734375 44.1875 -0.34375 
Q 39.109375 -1.421875 33.890625 -1.421875 
Q 20.796875 -1.421875 13.15625 6.1875 
Q 5.515625 13.8125 5.515625 26.8125 
Q 5.515625 40.234375 12.765625 48.109375 
Q 20.015625 56 32.328125 56 
Q 43.359375 56 49.78125 48.890625 
Q 56.203125 41.796875 56.203125 29.59375 
z
M 47.21875 32.234375 
Q 47.125 39.59375 43.09375 43.984375 
Q 39.0625 48.390625 32.421875 48.390625 
Q 24.90625 48.390625 20.390625 44.140625 
Q 15.875 39.890625 15.1875 32.171875 
z
" id="DejaVuSans-101"/>
       <path id="DejaVuSans-32"/>
       <path d="M 51.125 44 
L 36.921875 44 
L 32.8125 27.6875 
L 47.125 27.6875 
z
M 43.796875 71.78125 
L 38.71875 51.515625 
L 52.984375 51.515625 
L 58.109375 71.78125 
L 65.921875 71.78125 
L 60.890625 51.515625 
L 76.125 51.515625 
L 76.125 44 
L 58.984375 44 
L 54.984375 27.6875 
L 70.515625 27.6875 
L 70.515625 20.21875 
L 53.078125 20.21875 
L 48 0 
L 40.1875 0 
L 45.21875 20.21875 
L 30.90625 20.21875 
L 25.875 0 
L 18.015625 0 
L 23.09375 20.21875 
L 7.71875 20.21875 
L 7.71875 27.6875 
L 24.90625 27.6875 
L 29 44 
L 13.28125 44 
L 13.28125 51.515625 
L 30.90625 51.515625 
L 35.890625 71.78125 
z
" id="DejaVuSans-35"/>
      </defs>
      <use xlink:href="#DejaVuSans-69"/>
      <use x="63.183594" xlink:href="#DejaVuSans-112"/>
      <use x="126.660156" xlink:href="#DejaVuSans-105"/>
      <use x="154.443359" xlink:href="#DejaVuSans-115"/>
      <use x="206.542969" xlink:href="#DejaVuSans-111"/>
      <use x="267.724609" xlink:href="#DejaVuSans-100"/>
      <use x="331.201172" xlink:href="#DejaVuSans-101"/>
      <use x="392.724609" xlink:href="#DejaVuSans-32"/>
      <use x="424.511719" xlink:href="#DejaVuSans-35"/>
     </g>
    </g>
   </g>
   <g id="matplotlib.axis_2">
    <g id="ytick_1">
     <g id="line2d_9">
      <defs>
       <path d="M 0 0 
L -3.5 0 
" id="m8ef852ad25" style="stroke:#000000;stroke-width:0.8;"/>
      </defs>
      <g>
       <use style="stroke:#000000;stroke-width:0.8;" x="180" xlink:href="#m8ef852ad25" y="567.276923"/>
      </g>
     </g>
     <g id="text_10">
      <!-- 0 -->
      <g transform="translate(166.6375 571.076142)scale(0.1 -0.1)">
       <use xlink:href="#DejaVuSans-48"/>
      </g>
     </g>
    </g>
    <g id="ytick_2">
     <g id="line2d_10">
      <g>
       <use style="stroke:#000000;stroke-width:0.8;" x="180" xlink:href="#m8ef852ad25" y="472.241958"/>
      </g>
     </g>
     <g id="text_11">
      <!-- 5 -->
      <g transform="translate(166.6375 476.041177)scale(0.1 -0.1)">
       <use xlink:href="#DejaVuSans-53"/>
      </g>
     </g>
    </g>
    <g id="ytick_3">
     <g id="line2d_11">
      <g>
       <use style="stroke:#000000;stroke-width:0.8;" x="180" xlink:href="#m8ef852ad25" y="377.206993"/>
      </g>
     </g>
     <g id="text_12">
      <!-- 10 -->
      <g transform="translate(160.275 381.006212)scale(0.1 -0.1)">
       <use xlink:href="#DejaVuSans-49"/>
       <use x="63.623047" xlink:href="#DejaVuSans-48"/>
      </g>
     </g>
    </g>
    <g id="ytick_4">
     <g id="line2d_12">
      <g>
       <use style="stroke:#000000;stroke-width:0.8;" x="180" xlink:href="#m8ef852ad25" y="282.172028"/>
      </g>
     </g>
     <g id="text_13">
      <!-- 15 -->
      <g transform="translate(160.275 285.971247)scale(0.1 -0.1)">
       <use xlink:href="#DejaVuSans-49"/>
       <use x="63.623047" xlink:href="#DejaVuSans-53"/>
      </g>
     </g>
    </g>
    <g id="ytick_5">
     <g id="line2d_13">
      <g>
       <use style="stroke:#000000;stroke-width:0.8;" x="180" xlink:href="#m8ef852ad25" y="187.137063"/>
      </g>
     </g>
     <g id="text_14">
      <!-- 20 -->
      <g transform="translate(160.275 190.936282)scale(0.1 -0.1)">
       <use xlink:href="#DejaVuSans-50"/>
       <use x="63.623047" xlink:href="#DejaVuSans-48"/>
      </g>
     </g>
    </g>
    <g id="ytick_6">
     <g id="line2d_14">
      <g>
       <use style="stroke:#000000;stroke-width:0.8;" x="180" xlink:href="#m8ef852ad25" y="92.102098"/>
      </g>
     </g>
     <g id="text_15">
      <!-- 25 -->
      <g transform="translate(160.275 95.901317)scale(0.1 -0.1)">
       <use xlink:href="#DejaVuSans-50"/>
       <use x="63.623047" xlink:href="#DejaVuSans-53"/>
      </g>
     </g>
    </g>
    <g id="text_16">
     <!-- Score -->
     <g transform="translate(153.779375 375.002813)rotate(-90)scale(0.12 -0.12)">
      <defs>
       <path d="M 53.515625 70.515625 
L 53.515625 60.890625 
Q 47.90625 63.578125 42.921875 64.890625 
Q 37.9375 66.21875 33.296875 66.21875 
Q 25.25 66.21875 20.875 63.09375 
Q 16.5 59.96875 16.5 54.203125 
Q 16.5 49.359375 19.40625 46.890625 
Q 22.3125 44.4375 30.421875 42.921875 
L 36.375 41.703125 
Q 47.40625 39.59375 52.65625 34.296875 
Q 57.90625 29 57.90625 20.125 
Q 57.90625 9.515625 50.796875 4.046875 
Q 43.703125 -1.421875 29.984375 -1.421875 
Q 24.8125 -1.421875 18.96875 -0.25 
Q 13.140625 0.921875 6.890625 3.21875 
L 6.890625 13.375 
Q 12.890625 10.015625 18.65625 8.296875 
Q 24.421875 6.59375 29.984375 6.59375 
Q 38.421875 6.59375 43.015625 9.90625 
Q 47.609375 13.234375 47.609375 19.390625 
Q 47.609375 24.75 44.3125 27.78125 
Q 41.015625 30.8125 33.5 32.328125 
L 27.484375 33.5 
Q 16.453125 35.6875 11.515625 40.375 
Q 6.59375 45.0625 6.59375 53.421875 
Q 6.59375 63.09375 13.40625 68.65625 
Q 20.21875 74.21875 32.171875 74.21875 
Q 37.3125 74.21875 42.625 73.28125 
Q 47.953125 72.359375 53.515625 70.515625 
z
" id="DejaVuSans-83"/>
       <path d="M 48.78125 52.59375 
L 48.78125 44.1875 
Q 44.96875 46.296875 41.140625 47.34375 
Q 37.3125 48.390625 33.40625 48.390625 
Q 24.65625 48.390625 19.8125 42.84375 
Q 14.984375 37.3125 14.984375 27.296875 
Q 14.984375 17.28125 19.8125 11.734375 
Q 24.65625 6.203125 33.40625 6.203125 
Q 37.3125 6.203125 41.140625 7.25 
Q 44.96875 8.296875 48.78125 10.40625 
L 48.78125 2.09375 
Q 45.015625 0.34375 40.984375 -0.53125 
Q 36.96875 -1.421875 32.421875 -1.421875 
Q 20.0625 -1.421875 12.78125 6.34375 
Q 5.515625 14.109375 5.515625 27.296875 
Q 5.515625 40.671875 12.859375 48.328125 
Q 20.21875 56 33.015625 56 
Q 37.15625 56 41.109375 55.140625 
Q 45.0625 54.296875 48.78125 52.59375 
z
" id="DejaVuSans-99"/>
       <path d="M 41.109375 46.296875 
Q 39.59375 47.171875 37.8125 47.578125 
Q 36.03125 48 33.890625 48 
Q 26.265625 48 22.1875 43.046875 
Q 18.109375 38.09375 18.109375 28.8125 
L 18.109375 0 
L 9.078125 0 
L 9.078125 54.6875 
L 18.109375 54.6875 
L 18.109375 46.1875 
Q 20.953125 51.171875 25.484375 53.578125 
Q 30.03125 56 36.53125 56 
Q 37.453125 56 38.578125 55.875 
Q 39.703125 55.765625 41.0625 55.515625 
z
" id="DejaVuSans-114"/>
      </defs>
      <use xlink:href="#DejaVuSans-83"/>
      <use x="63.476562" xlink:href="#DejaVuSans-99"/>
      <use x="118.457031" xlink:href="#DejaVuSans-111"/>
      <use x="179.638672" xlink:href="#DejaVuSans-114"/>
      <use x="218.501953" xlink:href="#DejaVuSans-101"/>
     </g>
    </g>
   </g>
   <g id="line2d_15">
    <path clip-path="url(#p7613225b39)" d="M 230.727273 586.283916 
L 233.411255 548.26993 
L 236.095238 567.276923 
L 238.779221 567.276923 
L 241.463203 605.290909 
L 244.147186 567.276923 
L 246.831169 548.26993 
L 249.515152 586.283916 
L 252.199134 567.276923 
L 254.883117 586.283916 
L 257.5671 567.276923 
L 260.251082 605.290909 
L 262.935065 586.283916 
L 265.619048 510.255944 
L 268.30303 605.290909 
L 270.987013 567.276923 
L 273.670996 605.290909 
L 276.354978 510.255944 
L 279.038961 586.283916 
L 281.722944 472.241958 
L 284.406926 605.290909 
L 287.090909 529.262937 
L 289.774892 548.26993 
L 292.458874 529.262937 
L 295.142857 605.290909 
L 297.82684 567.276923 
L 300.510823 548.26993 
L 305.878788 548.26993 
L 308.562771 567.276923 
L 311.246753 510.255944 
L 313.930736 567.276923 
L 316.614719 567.276923 
L 319.298701 548.26993 
L 327.350649 548.26993 
L 330.034632 586.283916 
L 332.718615 529.262937 
L 335.402597 605.290909 
L 338.08658 548.26993 
L 340.770563 567.276923 
L 343.454545 529.262937 
L 346.138528 567.276923 
L 348.822511 529.262937 
L 354.190476 567.276923 
L 359.558442 453.234965 
L 362.242424 548.26993 
L 364.926407 491.248951 
L 367.61039 605.290909 
L 370.294372 567.276923 
L 372.978355 567.276923 
L 375.662338 529.262937 
L 378.34632 548.26993 
L 381.030303 529.262937 
L 383.714286 529.262937 
L 386.398268 453.234965 
L 389.082251 529.262937 
L 391.766234 548.26993 
L 394.450216 491.248951 
L 399.818182 567.276923 
L 402.502165 586.283916 
L 405.186147 567.276923 
L 407.87013 491.248951 
L 410.554113 567.276923 
L 413.238095 529.262937 
L 415.922078 548.26993 
L 418.606061 529.262937 
L 421.290043 567.276923 
L 423.974026 510.255944 
L 426.658009 529.262937 
L 429.341991 529.262937 
L 432.025974 396.213986 
L 434.709957 510.255944 
L 437.393939 586.283916 
L 440.077922 529.262937 
L 445.445887 491.248951 
L 448.12987 491.248951 
L 450.813853 586.283916 
L 453.497835 567.276923 
L 456.181818 529.262937 
L 458.865801 567.276923 
L 461.549784 472.241958 
L 464.233766 529.262937 
L 466.917749 510.255944 
L 469.601732 472.241958 
L 474.969697 472.241958 
L 477.65368 415.220979 
L 480.337662 529.262937 
L 483.021645 567.276923 
L 485.705628 472.241958 
L 488.38961 472.241958 
L 491.073593 491.248951 
L 493.757576 567.276923 
L 496.441558 510.255944 
L 499.125541 415.220979 
L 501.809524 529.262937 
L 504.493506 510.255944 
L 507.177489 510.255944 
L 509.861472 567.276923 
L 512.545455 453.234965 
L 515.229437 529.262937 
L 517.91342 491.248951 
L 520.597403 434.227972 
L 523.281385 491.248951 
L 525.965368 377.206993 
L 528.649351 491.248951 
L 531.333333 491.248951 
L 534.017316 472.241958 
L 536.701299 510.255944 
L 539.385281 415.220979 
L 542.069264 434.227972 
L 544.753247 510.255944 
L 547.437229 491.248951 
L 550.121212 396.213986 
L 552.805195 529.262937 
L 555.489177 491.248951 
L 558.17316 396.213986 
L 560.857143 396.213986 
L 563.541126 453.234965 
L 566.225108 453.234965 
L 568.909091 415.220979 
L 571.593074 453.234965 
L 574.277056 377.206993 
L 576.961039 434.227972 
L 579.645022 548.26993 
L 582.329004 529.262937 
L 585.012987 434.227972 
L 587.69697 510.255944 
L 590.380952 415.220979 
L 593.064935 491.248951 
L 595.748918 358.2 
L 598.4329 529.262937 
L 601.116883 415.220979 
L 603.800866 434.227972 
L 606.484848 491.248951 
L 609.168831 453.234965 
L 611.852814 434.227972 
L 614.536797 510.255944 
L 617.220779 415.220979 
L 619.904762 244.158042 
L 622.588745 491.248951 
L 625.272727 491.248951 
L 627.95671 434.227972 
L 630.640693 396.213986 
L 633.324675 491.248951 
L 636.008658 415.220979 
L 641.376623 377.206993 
L 644.060606 415.220979 
L 646.744589 472.241958 
L 649.428571 244.158042 
L 652.112554 510.255944 
L 654.796537 434.227972 
L 657.480519 453.234965 
L 660.164502 434.227972 
L 662.848485 282.172028 
L 665.532468 339.193007 
L 668.21645 548.26993 
L 670.900433 339.193007 
L 673.584416 434.227972 
L 676.268398 301.179021 
L 678.952381 415.220979 
L 681.636364 548.26993 
L 684.320346 396.213986 
L 687.004329 529.262937 
L 689.688312 415.220979 
L 692.372294 434.227972 
L 695.056277 415.220979 
L 697.74026 434.227972 
L 700.424242 320.186014 
L 703.108225 320.186014 
L 705.792208 358.2 
L 708.47619 453.234965 
L 713.844156 415.220979 
L 716.528139 510.255944 
L 719.212121 491.248951 
L 721.896104 358.2 
L 724.580087 453.234965 
L 727.264069 491.248951 
L 729.948052 263.165035 
L 732.632035 434.227972 
L 735.316017 320.186014 
L 738 339.193007 
L 740.683983 339.193007 
L 743.367965 320.186014 
L 746.051948 377.206993 
L 748.735931 529.262937 
L 751.419913 282.172028 
L 754.103896 453.234965 
L 756.787879 548.26993 
L 759.471861 415.220979 
L 762.155844 415.220979 
L 764.839827 301.179021 
L 767.52381 282.172028 
L 770.207792 358.2 
L 772.891775 377.206993 
L 775.575758 320.186014 
L 778.25974 434.227972 
L 780.943723 415.220979 
L 783.627706 282.172028 
L 786.311688 529.262937 
L 791.679654 377.206993 
L 794.363636 358.2 
L 797.047619 434.227972 
L 799.731602 434.227972 
L 802.415584 529.262937 
L 805.099567 358.2 
L 807.78355 396.213986 
L 810.467532 453.234965 
L 813.151515 415.220979 
L 815.835498 415.220979 
L 818.519481 301.179021 
L 821.203463 263.165035 
L 823.887446 415.220979 
L 826.571429 301.179021 
L 829.255411 377.206993 
L 831.939394 301.179021 
L 834.623377 320.186014 
L 837.307359 510.255944 
L 839.991342 301.179021 
L 842.675325 491.248951 
L 845.359307 472.241958 
L 848.04329 396.213986 
L 850.727273 263.165035 
L 853.411255 358.2 
L 856.095238 434.227972 
L 858.779221 415.220979 
L 861.463203 529.262937 
L 864.147186 358.2 
L 866.831169 434.227972 
L 869.515152 453.234965 
L 872.199134 244.158042 
L 874.883117 301.179021 
L 877.5671 377.206993 
L 880.251082 358.2 
L 882.935065 434.227972 
L 885.619048 358.2 
L 888.30303 491.248951 
L 890.987013 377.206993 
L 893.670996 396.213986 
L 896.354978 358.2 
L 899.038961 301.179021 
L 901.722944 377.206993 
L 904.406926 339.193007 
L 907.090909 206.144056 
L 909.774892 263.165035 
L 912.458874 396.213986 
L 915.142857 415.220979 
L 917.82684 301.179021 
L 920.510823 320.186014 
L 923.194805 244.158042 
L 925.878788 472.241958 
L 928.562771 396.213986 
L 933.930736 320.186014 
L 936.614719 339.193007 
L 939.298701 282.172028 
L 941.982684 529.262937 
L 944.666667 529.262937 
L 947.350649 415.220979 
L 950.034632 529.262937 
L 952.718615 358.2 
L 955.402597 529.262937 
L 958.08658 339.193007 
L 960.770563 225.151049 
L 963.454545 358.2 
L 966.138528 396.213986 
L 968.822511 415.220979 
L 971.506494 377.206993 
L 974.190476 320.186014 
L 976.874459 377.206993 
L 982.242424 377.206993 
L 984.926407 396.213986 
L 987.61039 282.172028 
L 990.294372 339.193007 
L 992.978355 415.220979 
L 995.662338 472.241958 
L 998.34632 187.137063 
L 1001.030303 320.186014 
L 1003.714286 149.123077 
L 1006.398268 491.248951 
L 1009.082251 320.186014 
L 1011.766234 263.165035 
L 1014.450216 358.2 
L 1017.134199 320.186014 
L 1019.818182 377.206993 
L 1022.502165 472.241958 
L 1025.186147 263.165035 
L 1027.87013 510.255944 
L 1030.554113 529.262937 
L 1033.238095 244.158042 
L 1035.922078 263.165035 
L 1038.606061 320.186014 
L 1041.290043 396.213986 
L 1043.974026 225.151049 
L 1046.658009 472.241958 
L 1049.341991 434.227972 
L 1052.025974 263.165035 
L 1054.709957 282.172028 
L 1057.393939 282.172028 
L 1060.077922 434.227972 
L 1062.761905 282.172028 
L 1065.445887 225.151049 
L 1068.12987 225.151049 
L 1070.813853 453.234965 
L 1073.497835 358.2 
L 1076.181818 472.241958 
L 1078.865801 377.206993 
L 1081.549784 339.193007 
L 1084.233766 282.172028 
L 1086.917749 358.2 
L 1089.601732 282.172028 
L 1092.285714 434.227972 
L 1094.969697 358.2 
L 1097.65368 320.186014 
L 1100.337662 358.2 
L 1103.021645 168.13007 
L 1105.705628 415.220979 
L 1108.38961 320.186014 
L 1111.073593 244.158042 
L 1113.757576 187.137063 
L 1116.441558 548.26993 
L 1119.125541 225.151049 
L 1121.809524 206.144056 
L 1124.493506 301.179021 
L 1127.177489 263.165035 
L 1129.861472 472.241958 
L 1132.545455 282.172028 
L 1135.229437 111.109091 
L 1137.91342 187.137063 
L 1143.281385 453.234965 
L 1145.965368 225.151049 
L 1148.649351 415.220979 
L 1151.333333 206.144056 
L 1156.701299 358.2 
L 1159.385281 225.151049 
L 1162.069264 263.165035 
L 1164.753247 434.227972 
L 1167.437229 206.144056 
L 1170.121212 225.151049 
L 1172.805195 320.186014 
L 1175.489177 301.179021 
L 1178.17316 263.165035 
L 1180.857143 339.193007 
L 1183.541126 244.158042 
L 1188.909091 358.2 
L 1191.593074 206.144056 
L 1194.277056 358.2 
L 1196.961039 320.186014 
L 1199.645022 244.158042 
L 1202.329004 472.241958 
L 1205.012987 396.213986 
L 1207.69697 244.158042 
L 1210.380952 320.186014 
L 1213.064935 548.26993 
L 1215.748918 301.179021 
L 1218.4329 339.193007 
L 1221.116883 320.186014 
L 1223.800866 187.137063 
L 1226.484848 282.172028 
L 1229.168831 187.137063 
L 1231.852814 282.172028 
L 1234.536797 339.193007 
L 1239.904762 187.137063 
L 1242.588745 320.186014 
L 1245.272727 225.151049 
L 1245.272727 225.151049 
" style="fill:none;stroke:#1f77b4;stroke-linecap:square;stroke-width:1.5;"/>
   </g>
   <g id="line2d_16">
    <path clip-path="url(#p7613225b39)" d="M 230.727273 586.283916 
L 233.411255 567.276923 
L 238.779221 567.276923 
L 241.463203 574.87972 
L 244.147186 573.612587 
L 246.831169 569.992208 
L 249.515152 572.028671 
L 252.199134 571.500699 
L 254.883117 572.979021 
L 257.5671 572.460648 
L 260.251082 575.196503 
L 262.935065 576.049381 
L 265.619048 571.34985 
L 268.30303 573.612587 
L 270.987013 573.216608 
L 273.670996 575.103332 
L 276.354978 571.500699 
L 279.038961 572.278763 
L 281.722944 567.276923 
L 284.406926 569.087113 
L 287.090909 567.276923 
L 289.774892 566.450532 
L 292.458874 564.901049 
L 295.142857 566.516643 
L 297.82684 566.545885 
L 303.194805 565.24046 
L 305.878788 564.655269 
L 308.562771 564.742657 
L 311.246753 562.985021 
L 316.614719 563.245137 
L 324.666667 561.997203 
L 327.350649 561.626195 
L 330.034632 562.275083 
L 332.718615 561.428618 
L 335.402597 562.525175 
L 338.08658 562.177486 
L 340.770563 562.298901 
L 343.454545 561.530623 
L 346.138528 561.661221 
L 348.822511 560.941259 
L 351.506494 560.665795 
L 354.190476 560.806457 
L 356.874459 559.753322 
L 359.558442 557.579478 
L 362.242424 557.393287 
L 364.926407 556.096339 
L 367.61039 557.042388 
L 372.978355 557.421445 
L 375.662338 556.909472 
L 378.34632 556.755195 
L 383.714286 555.807186 
L 386.398268 554.068674 
L 389.082251 553.655245 
L 391.766234 553.566961 
L 394.450216 552.561832 
L 397.134199 552.192008 
L 399.818182 552.42771 
L 402.502165 552.948575 
L 405.186147 553.165671 
L 407.87013 552.241541 
L 410.554113 552.462649 
L 413.238095 552.126421 
L 415.922078 552.071329 
L 418.606061 551.750084 
L 421.290043 551.965734 
L 423.974026 551.394367 
L 429.341991 550.804196 
L 432.025974 548.770114 
L 434.709957 548.26993 
L 437.393939 548.757289 
L 440.077922 548.510525 
L 442.761905 548.032343 
L 448.12987 546.647382 
L 450.813853 547.12493 
L 453.497835 547.364835 
L 456.181818 547.151872 
L 458.865801 547.385884 
L 461.549784 546.522161 
L 464.233766 546.326033 
L 466.917749 545.920751 
L 474.969697 543.518182 
L 477.65368 542.138642 
L 480.337662 542.001666 
L 483.021645 542.267722 
L 488.38961 540.823892 
L 491.073593 540.318025 
L 493.757576 540.590337 
L 496.441558 540.286993 
L 499.125541 538.576364 
L 501.809524 538.386294 
L 507.177489 537.245874 
L 509.861472 536.865734 
L 512.545455 535.725315 
L 515.229437 535.535245 
L 517.91342 534.584895 
L 520.597403 533.254406 
L 523.281385 532.304056 
L 525.965368 530.403357 
L 528.649351 529.262937 
L 531.333333 528.312587 
L 534.017316 527.932448 
L 536.701299 526.982098 
L 539.385281 525.461538 
L 542.069264 523.750909 
L 544.753247 523.750909 
L 547.437229 522.800559 
L 552.805195 521.28 
L 555.489177 520.89986 
L 558.17316 519.379301 
L 560.857143 518.048811 
L 563.541126 516.528252 
L 566.225108 515.387832 
L 568.909091 514.057343 
L 571.593074 513.106993 
L 574.277056 511.396364 
L 576.961039 510.065874 
L 579.645022 510.446014 
L 582.329004 510.065874 
L 585.012987 508.735385 
L 587.69697 508.355245 
L 590.380952 507.024755 
L 593.064935 506.454545 
L 595.748918 504.553846 
L 598.4329 503.983636 
L 601.116883 502.843217 
L 603.800866 501.132587 
L 606.484848 500.562378 
L 609.168831 499.421958 
L 611.852814 498.471608 
L 614.536797 497.901399 
L 617.220779 496.760979 
L 619.904762 493.71986 
L 622.588745 492.95958 
L 627.95671 492.579441 
L 630.640693 491.058881 
L 633.324675 491.058881 
L 636.008658 489.158182 
L 638.692641 487.447552 
L 641.376623 485.546853 
L 644.060606 484.406434 
L 646.744589 483.646154 
L 649.428571 480.795105 
L 654.796537 480.414965 
L 657.480519 479.654685 
L 660.164502 478.514266 
L 662.848485 476.423497 
L 665.532468 474.522797 
L 668.21645 474.332727 
L 670.900433 471.861818 
L 673.584416 470.531329 
L 676.268398 468.630629 
L 678.952381 467.11007 
L 681.636364 467.30014 
L 684.320346 465.77958 
L 687.004329 465.77958 
L 689.688312 464.259021 
L 692.372294 463.498741 
L 695.056277 462.358322 
L 697.74026 461.407972 
L 700.424242 460.647692 
L 703.108225 458.746993 
L 705.792208 456.466154 
L 713.844156 454.185315 
L 716.528139 454.375385 
L 719.212121 453.425035 
L 721.896104 451.334266 
L 727.264069 449.813706 
L 729.948052 447.722937 
L 732.632035 446.772587 
L 735.316017 444.871888 
L 740.683983 442.210909 
L 743.367965 440.69035 
L 746.051948 440.31021 
L 748.735931 440.31021 
L 751.419913 437.459161 
L 754.103896 437.269091 
L 756.787879 438.029371 
L 759.471861 437.269091 
L 762.155844 435.748531 
L 764.839827 433.657762 
L 767.52381 432.327273 
L 770.207792 430.616643 
L 772.891775 429.286154 
L 775.575758 427.385455 
L 778.25974 426.054965 
L 780.943723 425.674825 
L 783.627706 423.203916 
L 786.311688 423.584056 
L 788.995671 423.774126 
L 791.679654 422.633706 
L 794.363636 422.443636 
L 799.731602 421.303217 
L 802.415584 421.873427 
L 805.099567 420.352867 
L 807.78355 420.162797 
L 810.467532 420.352867 
L 813.151515 419.402517 
L 815.835498 418.642238 
L 818.519481 417.691888 
L 821.203463 415.030909 
L 823.887446 414.270629 
L 826.571429 413.32028 
L 829.255411 413.13021 
L 831.939394 411.60965 
L 834.623377 410.279161 
L 837.307359 411.22951 
L 839.991342 409.708951 
L 842.675325 410.849371 
L 845.359307 411.22951 
L 848.04329 409.708951 
L 850.727273 407.047972 
L 856.095238 405.527413 
L 858.779221 405.527413 
L 861.463203 405.907552 
L 864.147186 405.907552 
L 866.831169 404.957203 
L 869.515152 405.337343 
L 874.883117 401.535944 
L 882.935065 399.255105 
L 885.619048 398.684895 
L 888.30303 401.155804 
L 890.987013 400.015385 
L 893.670996 399.065035 
L 896.354978 398.304755 
L 899.038961 397.354406 
L 901.722944 396.213986 
L 904.406926 395.453706 
L 907.090909 393.553007 
L 909.774892 392.412587 
L 912.458874 392.222517 
L 915.142857 391.652308 
L 917.82684 392.222517 
L 923.194805 388.421119 
L 925.878788 388.611189 
L 928.562771 388.231049 
L 931.246753 388.991329 
L 933.930736 388.801259 
L 936.614719 386.71049 
L 939.298701 386.14028 
L 941.982684 387.090629 
L 944.666667 389.371469 
L 947.350649 389.371469 
L 950.034632 389.181399 
L 952.718615 388.801259 
L 955.402597 388.801259 
L 958.08658 388.040979 
L 960.770563 385.95021 
L 963.454545 385.38 
L 966.138528 384.99986 
L 968.822511 385.95021 
L 971.506494 386.52042 
L 974.190476 386.14028 
L 976.874459 385.38 
L 979.558442 384.80979 
L 982.242424 384.42965 
L 984.926407 383.289231 
L 987.61039 381.198462 
L 990.294372 381.008392 
L 992.978355 380.628252 
L 995.662338 380.438182 
L 998.34632 379.677902 
L 1001.030303 378.537483 
L 1003.714286 376.826853 
L 1006.398268 378.347413 
L 1009.082251 378.157343 
L 1011.766234 377.587133 
L 1014.450216 377.397063 
L 1017.134199 375.306294 
L 1019.818182 376.256643 
L 1022.502165 376.446713 
L 1025.186147 373.595664 
L 1027.87013 374.546014 
L 1030.554113 375.686434 
L 1033.238095 375.116224 
L 1035.922078 374.926154 
L 1038.606061 374.546014 
L 1041.290043 374.736084 
L 1043.974026 373.785734 
L 1046.658009 374.165874 
L 1049.341991 374.355944 
L 1052.025974 374.165874 
L 1054.709957 371.694965 
L 1057.393939 369.984336 
L 1060.077922 370.554545 
L 1062.761905 369.794266 
L 1068.12987 365.612727 
L 1070.813853 364.852448 
L 1073.497835 364.852448 
L 1076.181818 365.612727 
L 1081.549784 364.092168 
L 1084.233766 362.761678 
L 1086.917749 363.331888 
L 1092.285714 363.712028 
L 1094.969697 364.282238 
L 1097.65368 363.712028 
L 1100.337662 364.282238 
L 1103.021645 362.761678 
L 1105.705628 361.811329 
L 1108.38961 362.001399 
L 1111.073593 359.53049 
L 1113.757576 356.679441 
L 1116.441558 358.2 
L 1119.125541 357.81986 
L 1121.809524 356.299301 
L 1124.493506 354.968811 
L 1127.177489 353.448252 
L 1129.861472 352.878042 
L 1132.545455 352.117762 
L 1135.229437 348.886573 
L 1137.91342 346.225594 
L 1140.597403 346.985874 
L 1143.281385 348.506434 
L 1145.965368 346.985874 
L 1148.649351 347.556084 
L 1151.333333 345.275245 
L 1154.017316 344.514965 
L 1156.701299 343.184476 
L 1159.385281 341.663916 
L 1162.069264 340.333427 
L 1164.753247 341.093706 
L 1167.437229 340.143357 
L 1170.121212 338.622797 
L 1172.805195 338.432727 
L 1175.489177 339.383077 
L 1178.17316 339.383077 
L 1180.857143 338.812867 
L 1183.541126 337.102238 
L 1186.225108 337.102238 
L 1188.909091 337.482378 
L 1191.593074 337.102238 
L 1194.277056 335.961818 
L 1196.961039 335.201538 
L 1199.645022 334.061119 
L 1202.329004 335.581678 
L 1205.012987 336.151888 
L 1207.69697 335.771748 
L 1210.380952 333.680979 
L 1213.064935 333.871049 
L 1215.748918 332.730629 
L 1218.4329 330.82993 
L 1221.116883 330.44979 
L 1223.800866 327.028531 
L 1226.484848 326.458322 
L 1229.168831 326.078182 
L 1231.852814 325.317902 
L 1234.536797 324.747692 
L 1237.220779 323.227133 
L 1239.904762 321.326434 
L 1242.588745 321.326434 
L 1245.272727 319.805874 
L 1245.272727 319.805874 
" style="fill:none;stroke:#ff7f0e;stroke-linecap:square;stroke-width:1.5;"/>
   </g>
   <g id="patch_3">
    <path d="M 180 630 
L 180 86.4 
" style="fill:none;stroke:#000000;stroke-linecap:square;stroke-linejoin:miter;stroke-width:0.8;"/>
   </g>
   <g id="patch_4">
    <path d="M 1296 630 
L 1296 86.4 
" style="fill:none;stroke:#000000;stroke-linecap:square;stroke-linejoin:miter;stroke-width:0.8;"/>
   </g>
   <g id="patch_5">
    <path d="M 180 630 
L 1296 630 
" style="fill:none;stroke:#000000;stroke-linecap:square;stroke-linejoin:miter;stroke-width:0.8;"/>
   </g>
   <g id="patch_6">
    <path d="M 180 86.4 
L 1296 86.4 
" style="fill:none;stroke:#000000;stroke-linecap:square;stroke-linejoin:miter;stroke-width:0.8;"/>
   </g>
   <g id="legend_1">
    <g id="patch_7">
     <path d="M 1152.901875 131.2275 
L 1287.6 131.2275 
Q 1290 131.2275 1290 128.8275 
L 1290 94.8 
Q 1290 92.4 1287.6 92.4 
L 1152.901875 92.4 
Q 1150.501875 92.4 1150.501875 94.8 
L 1150.501875 128.8275 
Q 1150.501875 131.2275 1152.901875 131.2275 
z
" style="fill:#ffffff;opacity:0.8;stroke:#cccccc;stroke-linejoin:miter;"/>
    </g>
    <g id="line2d_17">
     <path d="M 1155.301875 102.118125 
L 1179.301875 102.118125 
" style="fill:none;stroke:#1f77b4;stroke-linecap:square;stroke-width:1.5;"/>
    </g>
    <g id="line2d_18"/>
    <g id="text_17">
     <!-- Score -->
     <g transform="translate(1188.901875 106.318125)scale(0.12 -0.12)">
      <use xlink:href="#DejaVuSans-83"/>
      <use x="63.476562" xlink:href="#DejaVuSans-99"/>
      <use x="118.457031" xlink:href="#DejaVuSans-111"/>
      <use x="179.638672" xlink:href="#DejaVuSans-114"/>
      <use x="218.501953" xlink:href="#DejaVuSans-101"/>
     </g>
    </g>
    <g id="line2d_19">
     <path d="M 1155.301875 119.731875 
L 1179.301875 119.731875 
" style="fill:none;stroke:#ff7f0e;stroke-linecap:square;stroke-width:1.5;"/>
    </g>
    <g id="line2d_20"/>
    <g id="text_18">
     <!-- Moving average -->
     <g transform="translate(1188.901875 123.931875)scale(0.12 -0.12)">
      <defs>
       <path d="M 9.8125 72.90625 
L 24.515625 72.90625 
L 43.109375 23.296875 
L 61.8125 72.90625 
L 76.515625 72.90625 
L 76.515625 0 
L 66.890625 0 
L 66.890625 64.015625 
L 48.09375 14.015625 
L 38.1875 14.015625 
L 19.390625 64.015625 
L 19.390625 0 
L 9.8125 0 
z
" id="DejaVuSans-77"/>
       <path d="M 2.984375 54.6875 
L 12.5 54.6875 
L 29.59375 8.796875 
L 46.6875 54.6875 
L 56.203125 54.6875 
L 35.6875 0 
L 23.484375 0 
z
" id="DejaVuSans-118"/>
       <path d="M 54.890625 33.015625 
L 54.890625 0 
L 45.90625 0 
L 45.90625 32.71875 
Q 45.90625 40.484375 42.875 44.328125 
Q 39.84375 48.1875 33.796875 48.1875 
Q 26.515625 48.1875 22.3125 43.546875 
Q 18.109375 38.921875 18.109375 30.90625 
L 18.109375 0 
L 9.078125 0 
L 9.078125 54.6875 
L 18.109375 54.6875 
L 18.109375 46.1875 
Q 21.34375 51.125 25.703125 53.5625 
Q 30.078125 56 35.796875 56 
Q 45.21875 56 50.046875 50.171875 
Q 54.890625 44.34375 54.890625 33.015625 
z
" id="DejaVuSans-110"/>
       <path d="M 45.40625 27.984375 
Q 45.40625 37.75 41.375 43.109375 
Q 37.359375 48.484375 30.078125 48.484375 
Q 22.859375 48.484375 18.828125 43.109375 
Q 14.796875 37.75 14.796875 27.984375 
Q 14.796875 18.265625 18.828125 12.890625 
Q 22.859375 7.515625 30.078125 7.515625 
Q 37.359375 7.515625 41.375 12.890625 
Q 45.40625 18.265625 45.40625 27.984375 
z
M 54.390625 6.78125 
Q 54.390625 -7.171875 48.1875 -13.984375 
Q 42 -20.796875 29.203125 -20.796875 
Q 24.46875 -20.796875 20.265625 -20.09375 
Q 16.0625 -19.390625 12.109375 -17.921875 
L 12.109375 -9.1875 
Q 16.0625 -11.328125 19.921875 -12.34375 
Q 23.78125 -13.375 27.78125 -13.375 
Q 36.625 -13.375 41.015625 -8.765625 
Q 45.40625 -4.15625 45.40625 5.171875 
L 45.40625 9.625 
Q 42.625 4.78125 38.28125 2.390625 
Q 33.9375 0 27.875 0 
Q 17.828125 0 11.671875 7.65625 
Q 5.515625 15.328125 5.515625 27.984375 
Q 5.515625 40.671875 11.671875 48.328125 
Q 17.828125 56 27.875 56 
Q 33.9375 56 38.28125 53.609375 
Q 42.625 51.21875 45.40625 46.390625 
L 45.40625 54.6875 
L 54.390625 54.6875 
z
" id="DejaVuSans-103"/>
       <path d="M 34.28125 27.484375 
Q 23.390625 27.484375 19.1875 25 
Q 14.984375 22.515625 14.984375 16.5 
Q 14.984375 11.71875 18.140625 8.90625 
Q 21.296875 6.109375 26.703125 6.109375 
Q 34.1875 6.109375 38.703125 11.40625 
Q 43.21875 16.703125 43.21875 25.484375 
L 43.21875 27.484375 
z
M 52.203125 31.203125 
L 52.203125 0 
L 43.21875 0 
L 43.21875 8.296875 
Q 40.140625 3.328125 35.546875 0.953125 
Q 30.953125 -1.421875 24.3125 -1.421875 
Q 15.921875 -1.421875 10.953125 3.296875 
Q 6 8.015625 6 15.921875 
Q 6 25.140625 12.171875 29.828125 
Q 18.359375 34.515625 30.609375 34.515625 
L 43.21875 34.515625 
L 43.21875 35.40625 
Q 43.21875 41.609375 39.140625 45 
Q 35.0625 48.390625 27.6875 48.390625 
Q 23 48.390625 18.546875 47.265625 
Q 14.109375 46.140625 10.015625 43.890625 
L 10.015625 52.203125 
Q 14.9375 54.109375 19.578125 55.046875 
Q 24.21875 56 28.609375 56 
Q 40.484375 56 46.34375 49.84375 
Q 52.203125 43.703125 52.203125 31.203125 
z
" id="DejaVuSans-97"/>
      </defs>
      <use xlink:href="#DejaVuSans-77"/>
      <use x="86.279297" xlink:href="#DejaVuSans-111"/>
      <use x="147.460938" xlink:href="#DejaVuSans-118"/>
      <use x="206.640625" xlink:href="#DejaVuSans-105"/>
      <use x="234.423828" xlink:href="#DejaVuSans-110"/>
      <use x="297.802734" xlink:href="#DejaVuSans-103"/>
      <use x="361.279297" xlink:href="#DejaVuSans-32"/>
      <use x="393.066406" xlink:href="#DejaVuSans-97"/>
      <use x="454.345703" xlink:href="#DejaVuSans-118"/>
      <use x="513.525391" xlink:href="#DejaVuSans-101"/>
      <use x="575.048828" xlink:href="#DejaVuSans-114"/>
      <use x="616.162109" xlink:href="#DejaVuSans-97"/>
      <use x="677.441406" xlink:href="#DejaVuSans-103"/>
      <use x="740.917969" xlink:href="#DejaVuSans-101"/>
     </g>
    </g>
   </g>
  </g>
 </g>
 <defs>
  <clipPath id="p7613225b39">
   <rect height="543.6" width="1116" x="180" y="86.4"/>
  </clipPath>
 </defs>
</svg>
