<?xml version="1.0" encoding="utf-8" standalone="no"?>
<!DOCTYPE svg PUBLIC "-//W3C//DTD SVG 1.1//EN"
  "http://www.w3.org/Graphics/SVG/1.1/DTD/svg11.dtd">
<!-- Created with matplotlib (https://matplotlib.org/) -->
<svg height="720pt" version="1.1" viewBox="0 0 1440 720" width="1440pt" xmlns="http://www.w3.org/2000/svg" xmlns:xlink="http://www.w3.org/1999/xlink">
 <metadata>
  <rdf:RDF xmlns:cc="http://creativecommons.org/ns#" xmlns:dc="http://purl.org/dc/elements/1.1/" xmlns:rdf="http://www.w3.org/1999/02/22-rdf-syntax-ns#">
   <cc:Work>
    <dc:type rdf:resource="http://purl.org/dc/dcmitype/StillImage"/>
    <dc:date>2020-12-31T17:01:09.685643</dc:date>
    <dc:format>image/svg+xml</dc:format>
    <dc:creator>
     <cc:Agent>
      <dc:title>Matplotlib v3.3.3, https://matplotlib.org/</dc:title>
     </cc:Agent>
    </dc:creator>
   </cc:Work>
  </rdf:RDF>
 </metadata>
 <defs>
  <style type="text/css">*{stroke-linecap:butt;stroke-linejoin:round;}</style>
 </defs>
 <g id="figure_1">
  <g id="patch_1">
   <path d="M 0 720 
L 1440 720 
L 1440 0 
L 0 0 
z
" style="fill:none;"/>
  </g>
  <g id="axes_1">
   <g id="patch_2">
    <path d="M 180 630 
L 1296 630 
L 1296 86.4 
L 180 86.4 
z
" style="fill:#ffffff;"/>
   </g>
   <g id="matplotlib.axis_1">
    <g id="xtick_1">
     <g id="line2d_1">
      <defs>
       <path d="M 0 0 
L 0 3.5 
" id="mb8800c9251" style="stroke:#000000;stroke-width:0.8;"/>
      </defs>
      <g>
       <use style="stroke:#000000;stroke-width:0.8;" x="230.727273" xlink:href="#mb8800c9251" y="630"/>
      </g>
     </g>
     <g id="text_1">
      <!-- 0 -->
      <g transform="translate(227.546023 644.598438)scale(0.1 -0.1)">
       <defs>
        <path d="M 31.78125 66.40625 
Q 24.171875 66.40625 20.328125 58.90625 
Q 16.5 51.421875 16.5 36.375 
Q 16.5 21.390625 20.328125 13.890625 
Q 24.171875 6.390625 31.78125 6.390625 
Q 39.453125 6.390625 43.28125 13.890625 
Q 47.125 21.390625 47.125 36.375 
Q 47.125 51.421875 43.28125 58.90625 
Q 39.453125 66.40625 31.78125 66.40625 
z
M 31.78125 74.21875 
Q 44.046875 74.21875 50.515625 64.515625 
Q 56.984375 54.828125 56.984375 36.375 
Q 56.984375 17.96875 50.515625 8.265625 
Q 44.046875 -1.421875 31.78125 -1.421875 
Q 19.53125 -1.421875 13.0625 8.265625 
Q 6.59375 17.96875 6.59375 36.375 
Q 6.59375 54.828125 13.0625 64.515625 
Q 19.53125 74.21875 31.78125 74.21875 
z
" id="DejaVuSans-48"/>
       </defs>
       <use xlink:href="#DejaVuSans-48"/>
      </g>
     </g>
    </g>
    <g id="xtick_2">
     <g id="line2d_2">
      <g>
       <use style="stroke:#000000;stroke-width:0.8;" x="355.364306" xlink:href="#mb8800c9251" y="630"/>
      </g>
     </g>
     <g id="text_2">
      <!-- 50 -->
      <g transform="translate(349.001806 644.598438)scale(0.1 -0.1)">
       <defs>
        <path d="M 10.796875 72.90625 
L 49.515625 72.90625 
L 49.515625 64.59375 
L 19.828125 64.59375 
L 19.828125 46.734375 
Q 21.96875 47.46875 24.109375 47.828125 
Q 26.265625 48.1875 28.421875 48.1875 
Q 40.625 48.1875 47.75 41.5 
Q 54.890625 34.8125 54.890625 23.390625 
Q 54.890625 11.625 47.5625 5.09375 
Q 40.234375 -1.421875 26.90625 -1.421875 
Q 22.3125 -1.421875 17.546875 -0.640625 
Q 12.796875 0.140625 7.71875 1.703125 
L 7.71875 11.625 
Q 12.109375 9.234375 16.796875 8.0625 
Q 21.484375 6.890625 26.703125 6.890625 
Q 35.15625 6.890625 40.078125 11.328125 
Q 45.015625 15.765625 45.015625 23.390625 
Q 45.015625 31 40.078125 35.4375 
Q 35.15625 39.890625 26.703125 39.890625 
Q 22.75 39.890625 18.8125 39.015625 
Q 14.890625 38.140625 10.796875 36.28125 
z
" id="DejaVuSans-53"/>
       </defs>
       <use xlink:href="#DejaVuSans-53"/>
       <use x="63.623047" xlink:href="#DejaVuSans-48"/>
      </g>
     </g>
    </g>
    <g id="xtick_3">
     <g id="line2d_3">
      <g>
       <use style="stroke:#000000;stroke-width:0.8;" x="480.00134" xlink:href="#mb8800c9251" y="630"/>
      </g>
     </g>
     <g id="text_3">
      <!-- 100 -->
      <g transform="translate(470.45759 644.598438)scale(0.1 -0.1)">
       <defs>
        <path d="M 12.40625 8.296875 
L 28.515625 8.296875 
L 28.515625 63.921875 
L 10.984375 60.40625 
L 10.984375 69.390625 
L 28.421875 72.90625 
L 38.28125 72.90625 
L 38.28125 8.296875 
L 54.390625 8.296875 
L 54.390625 0 
L 12.40625 0 
z
" id="DejaVuSans-49"/>
       </defs>
       <use xlink:href="#DejaVuSans-49"/>
       <use x="63.623047" xlink:href="#DejaVuSans-48"/>
       <use x="127.246094" xlink:href="#DejaVuSans-48"/>
      </g>
     </g>
    </g>
    <g id="xtick_4">
     <g id="line2d_4">
      <g>
       <use style="stroke:#000000;stroke-width:0.8;" x="604.638374" xlink:href="#mb8800c9251" y="630"/>
      </g>
     </g>
     <g id="text_4">
      <!-- 150 -->
      <g transform="translate(595.094624 644.598438)scale(0.1 -0.1)">
       <use xlink:href="#DejaVuSans-49"/>
       <use x="63.623047" xlink:href="#DejaVuSans-53"/>
       <use x="127.246094" xlink:href="#DejaVuSans-48"/>
      </g>
     </g>
    </g>
    <g id="xtick_5">
     <g id="line2d_5">
      <g>
       <use style="stroke:#000000;stroke-width:0.8;" x="729.275408" xlink:href="#mb8800c9251" y="630"/>
      </g>
     </g>
     <g id="text_5">
      <!-- 200 -->
      <g transform="translate(719.731658 644.598438)scale(0.1 -0.1)">
       <defs>
        <path d="M 19.1875 8.296875 
L 53.609375 8.296875 
L 53.609375 0 
L 7.328125 0 
L 7.328125 8.296875 
Q 12.9375 14.109375 22.625 23.890625 
Q 32.328125 33.6875 34.8125 36.53125 
Q 39.546875 41.84375 41.421875 45.53125 
Q 43.3125 49.21875 43.3125 52.78125 
Q 43.3125 58.59375 39.234375 62.25 
Q 35.15625 65.921875 28.609375 65.921875 
Q 23.96875 65.921875 18.8125 64.3125 
Q 13.671875 62.703125 7.8125 59.421875 
L 7.8125 69.390625 
Q 13.765625 71.78125 18.9375 73 
Q 24.125 74.21875 28.421875 74.21875 
Q 39.75 74.21875 46.484375 68.546875 
Q 53.21875 62.890625 53.21875 53.421875 
Q 53.21875 48.921875 51.53125 44.890625 
Q 49.859375 40.875 45.40625 35.40625 
Q 44.1875 33.984375 37.640625 27.21875 
Q 31.109375 20.453125 19.1875 8.296875 
z
" id="DejaVuSans-50"/>
       </defs>
       <use xlink:href="#DejaVuSans-50"/>
       <use x="63.623047" xlink:href="#DejaVuSans-48"/>
       <use x="127.246094" xlink:href="#DejaVuSans-48"/>
      </g>
     </g>
    </g>
    <g id="xtick_6">
     <g id="line2d_6">
      <g>
       <use style="stroke:#000000;stroke-width:0.8;" x="853.912441" xlink:href="#mb8800c9251" y="630"/>
      </g>
     </g>
     <g id="text_6">
      <!-- 250 -->
      <g transform="translate(844.368691 644.598438)scale(0.1 -0.1)">
       <use xlink:href="#DejaVuSans-50"/>
       <use x="63.623047" xlink:href="#DejaVuSans-53"/>
       <use x="127.246094" xlink:href="#DejaVuSans-48"/>
      </g>
     </g>
    </g>
    <g id="xtick_7">
     <g id="line2d_7">
      <g>
       <use style="stroke:#000000;stroke-width:0.8;" x="978.549475" xlink:href="#mb8800c9251" y="630"/>
      </g>
     </g>
     <g id="text_7">
      <!-- 300 -->
      <g transform="translate(969.005725 644.598438)scale(0.1 -0.1)">
       <defs>
        <path d="M 40.578125 39.3125 
Q 47.65625 37.796875 51.625 33 
Q 55.609375 28.21875 55.609375 21.1875 
Q 55.609375 10.40625 48.1875 4.484375 
Q 40.765625 -1.421875 27.09375 -1.421875 
Q 22.515625 -1.421875 17.65625 -0.515625 
Q 12.796875 0.390625 7.625 2.203125 
L 7.625 11.71875 
Q 11.71875 9.328125 16.59375 8.109375 
Q 21.484375 6.890625 26.8125 6.890625 
Q 36.078125 6.890625 40.9375 10.546875 
Q 45.796875 14.203125 45.796875 21.1875 
Q 45.796875 27.640625 41.28125 31.265625 
Q 36.765625 34.90625 28.71875 34.90625 
L 20.21875 34.90625 
L 20.21875 43.015625 
L 29.109375 43.015625 
Q 36.375 43.015625 40.234375 45.921875 
Q 44.09375 48.828125 44.09375 54.296875 
Q 44.09375 59.90625 40.109375 62.90625 
Q 36.140625 65.921875 28.71875 65.921875 
Q 24.65625 65.921875 20.015625 65.03125 
Q 15.375 64.15625 9.8125 62.3125 
L 9.8125 71.09375 
Q 15.4375 72.65625 20.34375 73.4375 
Q 25.25 74.21875 29.59375 74.21875 
Q 40.828125 74.21875 47.359375 69.109375 
Q 53.90625 64.015625 53.90625 55.328125 
Q 53.90625 49.265625 50.4375 45.09375 
Q 46.96875 40.921875 40.578125 39.3125 
z
" id="DejaVuSans-51"/>
       </defs>
       <use xlink:href="#DejaVuSans-51"/>
       <use x="63.623047" xlink:href="#DejaVuSans-48"/>
       <use x="127.246094" xlink:href="#DejaVuSans-48"/>
      </g>
     </g>
    </g>
    <g id="xtick_8">
     <g id="line2d_8">
      <g>
       <use style="stroke:#000000;stroke-width:0.8;" x="1103.186509" xlink:href="#mb8800c9251" y="630"/>
      </g>
     </g>
     <g id="text_8">
      <!-- 350 -->
      <g transform="translate(1093.642759 644.598438)scale(0.1 -0.1)">
       <use xlink:href="#DejaVuSans-51"/>
       <use x="63.623047" xlink:href="#DejaVuSans-53"/>
       <use x="127.246094" xlink:href="#DejaVuSans-48"/>
      </g>
     </g>
    </g>
    <g id="xtick_9">
     <g id="line2d_9">
      <g>
       <use style="stroke:#000000;stroke-width:0.8;" x="1227.823543" xlink:href="#mb8800c9251" y="630"/>
      </g>
     </g>
     <g id="text_9">
      <!-- 400 -->
      <g transform="translate(1218.279793 644.598438)scale(0.1 -0.1)">
       <defs>
        <path d="M 37.796875 64.3125 
L 12.890625 25.390625 
L 37.796875 25.390625 
z
M 35.203125 72.90625 
L 47.609375 72.90625 
L 47.609375 25.390625 
L 58.015625 25.390625 
L 58.015625 17.1875 
L 47.609375 17.1875 
L 47.609375 0 
L 37.796875 0 
L 37.796875 17.1875 
L 4.890625 17.1875 
L 4.890625 26.703125 
z
" id="DejaVuSans-52"/>
       </defs>
       <use xlink:href="#DejaVuSans-52"/>
       <use x="63.623047" xlink:href="#DejaVuSans-48"/>
       <use x="127.246094" xlink:href="#DejaVuSans-48"/>
      </g>
     </g>
    </g>
    <g id="text_10">
     <!-- Episode # -->
     <g transform="translate(707.500312 659.79625)scale(0.12 -0.12)">
      <defs>
       <path d="M 9.8125 72.90625 
L 55.90625 72.90625 
L 55.90625 64.59375 
L 19.671875 64.59375 
L 19.671875 43.015625 
L 54.390625 43.015625 
L 54.390625 34.71875 
L 19.671875 34.71875 
L 19.671875 8.296875 
L 56.78125 8.296875 
L 56.78125 0 
L 9.8125 0 
z
" id="DejaVuSans-69"/>
       <path d="M 18.109375 8.203125 
L 18.109375 -20.796875 
L 9.078125 -20.796875 
L 9.078125 54.6875 
L 18.109375 54.6875 
L 18.109375 46.390625 
Q 20.953125 51.265625 25.265625 53.625 
Q 29.59375 56 35.59375 56 
Q 45.5625 56 51.78125 48.09375 
Q 58.015625 40.1875 58.015625 27.296875 
Q 58.015625 14.40625 51.78125 6.484375 
Q 45.5625 -1.421875 35.59375 -1.421875 
Q 29.59375 -1.421875 25.265625 0.953125 
Q 20.953125 3.328125 18.109375 8.203125 
z
M 48.6875 27.296875 
Q 48.6875 37.203125 44.609375 42.84375 
Q 40.53125 48.484375 33.40625 48.484375 
Q 26.265625 48.484375 22.1875 42.84375 
Q 18.109375 37.203125 18.109375 27.296875 
Q 18.109375 17.390625 22.1875 11.75 
Q 26.265625 6.109375 33.40625 6.109375 
Q 40.53125 6.109375 44.609375 11.75 
Q 48.6875 17.390625 48.6875 27.296875 
z
" id="DejaVuSans-112"/>
       <path d="M 9.421875 54.6875 
L 18.40625 54.6875 
L 18.40625 0 
L 9.421875 0 
z
M 9.421875 75.984375 
L 18.40625 75.984375 
L 18.40625 64.59375 
L 9.421875 64.59375 
z
" id="DejaVuSans-105"/>
       <path d="M 44.28125 53.078125 
L 44.28125 44.578125 
Q 40.484375 46.53125 36.375 47.5 
Q 32.28125 48.484375 27.875 48.484375 
Q 21.1875 48.484375 17.84375 46.4375 
Q 14.5 44.390625 14.5 40.28125 
Q 14.5 37.15625 16.890625 35.375 
Q 19.28125 33.59375 26.515625 31.984375 
L 29.59375 31.296875 
Q 39.15625 29.25 43.1875 25.515625 
Q 47.21875 21.78125 47.21875 15.09375 
Q 47.21875 7.46875 41.1875 3.015625 
Q 35.15625 -1.421875 24.609375 -1.421875 
Q 20.21875 -1.421875 15.453125 -0.5625 
Q 10.6875 0.296875 5.421875 2 
L 5.421875 11.28125 
Q 10.40625 8.6875 15.234375 7.390625 
Q 20.0625 6.109375 24.8125 6.109375 
Q 31.15625 6.109375 34.5625 8.28125 
Q 37.984375 10.453125 37.984375 14.40625 
Q 37.984375 18.0625 35.515625 20.015625 
Q 33.0625 21.96875 24.703125 23.78125 
L 21.578125 24.515625 
Q 13.234375 26.265625 9.515625 29.90625 
Q 5.8125 33.546875 5.8125 39.890625 
Q 5.8125 47.609375 11.28125 51.796875 
Q 16.75 56 26.8125 56 
Q 31.78125 56 36.171875 55.265625 
Q 40.578125 54.546875 44.28125 53.078125 
z
" id="DejaVuSans-115"/>
       <path d="M 30.609375 48.390625 
Q 23.390625 48.390625 19.1875 42.75 
Q 14.984375 37.109375 14.984375 27.296875 
Q 14.984375 17.484375 19.15625 11.84375 
Q 23.34375 6.203125 30.609375 6.203125 
Q 37.796875 6.203125 41.984375 11.859375 
Q 46.1875 17.53125 46.1875 27.296875 
Q 46.1875 37.015625 41.984375 42.703125 
Q 37.796875 48.390625 30.609375 48.390625 
z
M 30.609375 56 
Q 42.328125 56 49.015625 48.375 
Q 55.71875 40.765625 55.71875 27.296875 
Q 55.71875 13.875 49.015625 6.21875 
Q 42.328125 -1.421875 30.609375 -1.421875 
Q 18.84375 -1.421875 12.171875 6.21875 
Q 5.515625 13.875 5.515625 27.296875 
Q 5.515625 40.765625 12.171875 48.375 
Q 18.84375 56 30.609375 56 
z
" id="DejaVuSans-111"/>
       <path d="M 45.40625 46.390625 
L 45.40625 75.984375 
L 54.390625 75.984375 
L 54.390625 0 
L 45.40625 0 
L 45.40625 8.203125 
Q 42.578125 3.328125 38.25 0.953125 
Q 33.9375 -1.421875 27.875 -1.421875 
Q 17.96875 -1.421875 11.734375 6.484375 
Q 5.515625 14.40625 5.515625 27.296875 
Q 5.515625 40.1875 11.734375 48.09375 
Q 17.96875 56 27.875 56 
Q 33.9375 56 38.25 53.625 
Q 42.578125 51.265625 45.40625 46.390625 
z
M 14.796875 27.296875 
Q 14.796875 17.390625 18.875 11.75 
Q 22.953125 6.109375 30.078125 6.109375 
Q 37.203125 6.109375 41.296875 11.75 
Q 45.40625 17.390625 45.40625 27.296875 
Q 45.40625 37.203125 41.296875 42.84375 
Q 37.203125 48.484375 30.078125 48.484375 
Q 22.953125 48.484375 18.875 42.84375 
Q 14.796875 37.203125 14.796875 27.296875 
z
" id="DejaVuSans-100"/>
       <path d="M 56.203125 29.59375 
L 56.203125 25.203125 
L 14.890625 25.203125 
Q 15.484375 15.921875 20.484375 11.0625 
Q 25.484375 6.203125 34.421875 6.203125 
Q 39.59375 6.203125 44.453125 7.46875 
Q 49.3125 8.734375 54.109375 11.28125 
L 54.109375 2.78125 
Q 49.265625 0.734375 44.1875 -0.34375 
Q 39.109375 -1.421875 33.890625 -1.421875 
Q 20.796875 -1.421875 13.15625 6.1875 
Q 5.515625 13.8125 5.515625 26.8125 
Q 5.515625 40.234375 12.765625 48.109375 
Q 20.015625 56 32.328125 56 
Q 43.359375 56 49.78125 48.890625 
Q 56.203125 41.796875 56.203125 29.59375 
z
M 47.21875 32.234375 
Q 47.125 39.59375 43.09375 43.984375 
Q 39.0625 48.390625 32.421875 48.390625 
Q 24.90625 48.390625 20.390625 44.140625 
Q 15.875 39.890625 15.1875 32.171875 
z
" id="DejaVuSans-101"/>
       <path id="DejaVuSans-32"/>
       <path d="M 51.125 44 
L 36.921875 44 
L 32.8125 27.6875 
L 47.125 27.6875 
z
M 43.796875 71.78125 
L 38.71875 51.515625 
L 52.984375 51.515625 
L 58.109375 71.78125 
L 65.921875 71.78125 
L 60.890625 51.515625 
L 76.125 51.515625 
L 76.125 44 
L 58.984375 44 
L 54.984375 27.6875 
L 70.515625 27.6875 
L 70.515625 20.21875 
L 53.078125 20.21875 
L 48 0 
L 40.1875 0 
L 45.21875 20.21875 
L 30.90625 20.21875 
L 25.875 0 
L 18.015625 0 
L 23.09375 20.21875 
L 7.71875 20.21875 
L 7.71875 27.6875 
L 24.90625 27.6875 
L 29 44 
L 13.28125 44 
L 13.28125 51.515625 
L 30.90625 51.515625 
L 35.890625 71.78125 
z
" id="DejaVuSans-35"/>
      </defs>
      <use xlink:href="#DejaVuSans-69"/>
      <use x="63.183594" xlink:href="#DejaVuSans-112"/>
      <use x="126.660156" xlink:href="#DejaVuSans-105"/>
      <use x="154.443359" xlink:href="#DejaVuSans-115"/>
      <use x="206.542969" xlink:href="#DejaVuSans-111"/>
      <use x="267.724609" xlink:href="#DejaVuSans-100"/>
      <use x="331.201172" xlink:href="#DejaVuSans-101"/>
      <use x="392.724609" xlink:href="#DejaVuSans-32"/>
      <use x="424.511719" xlink:href="#DejaVuSans-35"/>
     </g>
    </g>
   </g>
   <g id="matplotlib.axis_2">
    <g id="ytick_1">
     <g id="line2d_10">
      <defs>
       <path d="M 0 0 
L -3.5 0 
" id="m321e1d638e" style="stroke:#000000;stroke-width:0.8;"/>
      </defs>
      <g>
       <use style="stroke:#000000;stroke-width:0.8;" x="180" xlink:href="#m321e1d638e" y="545.989091"/>
      </g>
     </g>
     <g id="text_11">
      <!-- 0 -->
      <g transform="translate(166.6375 549.78831)scale(0.1 -0.1)">
       <use xlink:href="#DejaVuSans-48"/>
      </g>
     </g>
    </g>
    <g id="ytick_2">
     <g id="line2d_11">
      <g>
       <use style="stroke:#000000;stroke-width:0.8;" x="180" xlink:href="#m321e1d638e" y="447.152727"/>
      </g>
     </g>
     <g id="text_12">
      <!-- 5 -->
      <g transform="translate(166.6375 450.951946)scale(0.1 -0.1)">
       <use xlink:href="#DejaVuSans-53"/>
      </g>
     </g>
    </g>
    <g id="ytick_3">
     <g id="line2d_12">
      <g>
       <use style="stroke:#000000;stroke-width:0.8;" x="180" xlink:href="#m321e1d638e" y="348.316364"/>
      </g>
     </g>
     <g id="text_13">
      <!-- 10 -->
      <g transform="translate(160.275 352.115582)scale(0.1 -0.1)">
       <use xlink:href="#DejaVuSans-49"/>
       <use x="63.623047" xlink:href="#DejaVuSans-48"/>
      </g>
     </g>
    </g>
    <g id="ytick_4">
     <g id="line2d_13">
      <g>
       <use style="stroke:#000000;stroke-width:0.8;" x="180" xlink:href="#m321e1d638e" y="249.48"/>
      </g>
     </g>
     <g id="text_14">
      <!-- 15 -->
      <g transform="translate(160.275 253.279219)scale(0.1 -0.1)">
       <use xlink:href="#DejaVuSans-49"/>
       <use x="63.623047" xlink:href="#DejaVuSans-53"/>
      </g>
     </g>
    </g>
    <g id="ytick_5">
     <g id="line2d_14">
      <g>
       <use style="stroke:#000000;stroke-width:0.8;" x="180" xlink:href="#m321e1d638e" y="150.643636"/>
      </g>
     </g>
     <g id="text_15">
      <!-- 20 -->
      <g transform="translate(160.275 154.442855)scale(0.1 -0.1)">
       <use xlink:href="#DejaVuSans-50"/>
       <use x="63.623047" xlink:href="#DejaVuSans-48"/>
      </g>
     </g>
    </g>
    <g id="text_16">
     <!-- Score -->
     <g transform="translate(153.779375 375.002813)rotate(-90)scale(0.12 -0.12)">
      <defs>
       <path d="M 53.515625 70.515625 
L 53.515625 60.890625 
Q 47.90625 63.578125 42.921875 64.890625 
Q 37.9375 66.21875 33.296875 66.21875 
Q 25.25 66.21875 20.875 63.09375 
Q 16.5 59.96875 16.5 54.203125 
Q 16.5 49.359375 19.40625 46.890625 
Q 22.3125 44.4375 30.421875 42.921875 
L 36.375 41.703125 
Q 47.40625 39.59375 52.65625 34.296875 
Q 57.90625 29 57.90625 20.125 
Q 57.90625 9.515625 50.796875 4.046875 
Q 43.703125 -1.421875 29.984375 -1.421875 
Q 24.8125 -1.421875 18.96875 -0.25 
Q 13.140625 0.921875 6.890625 3.21875 
L 6.890625 13.375 
Q 12.890625 10.015625 18.65625 8.296875 
Q 24.421875 6.59375 29.984375 6.59375 
Q 38.421875 6.59375 43.015625 9.90625 
Q 47.609375 13.234375 47.609375 19.390625 
Q 47.609375 24.75 44.3125 27.78125 
Q 41.015625 30.8125 33.5 32.328125 
L 27.484375 33.5 
Q 16.453125 35.6875 11.515625 40.375 
Q 6.59375 45.0625 6.59375 53.421875 
Q 6.59375 63.09375 13.40625 68.65625 
Q 20.21875 74.21875 32.171875 74.21875 
Q 37.3125 74.21875 42.625 73.28125 
Q 47.953125 72.359375 53.515625 70.515625 
z
" id="DejaVuSans-83"/>
       <path d="M 48.78125 52.59375 
L 48.78125 44.1875 
Q 44.96875 46.296875 41.140625 47.34375 
Q 37.3125 48.390625 33.40625 48.390625 
Q 24.65625 48.390625 19.8125 42.84375 
Q 14.984375 37.3125 14.984375 27.296875 
Q 14.984375 17.28125 19.8125 11.734375 
Q 24.65625 6.203125 33.40625 6.203125 
Q 37.3125 6.203125 41.140625 7.25 
Q 44.96875 8.296875 48.78125 10.40625 
L 48.78125 2.09375 
Q 45.015625 0.34375 40.984375 -0.53125 
Q 36.96875 -1.421875 32.421875 -1.421875 
Q 20.0625 -1.421875 12.78125 6.34375 
Q 5.515625 14.109375 5.515625 27.296875 
Q 5.515625 40.671875 12.859375 48.328125 
Q 20.21875 56 33.015625 56 
Q 37.15625 56 41.109375 55.140625 
Q 45.0625 54.296875 48.78125 52.59375 
z
" id="DejaVuSans-99"/>
       <path d="M 41.109375 46.296875 
Q 39.59375 47.171875 37.8125 47.578125 
Q 36.03125 48 33.890625 48 
Q 26.265625 48 22.1875 43.046875 
Q 18.109375 38.09375 18.109375 28.8125 
L 18.109375 0 
L 9.078125 0 
L 9.078125 54.6875 
L 18.109375 54.6875 
L 18.109375 46.1875 
Q 20.953125 51.171875 25.484375 53.578125 
Q 30.03125 56 36.53125 56 
Q 37.453125 56 38.578125 55.875 
Q 39.703125 55.765625 41.0625 55.515625 
z
" id="DejaVuSans-114"/>
      </defs>
      <use xlink:href="#DejaVuSans-83"/>
      <use x="63.476562" xlink:href="#DejaVuSans-99"/>
      <use x="118.457031" xlink:href="#DejaVuSans-111"/>
      <use x="179.638672" xlink:href="#DejaVuSans-114"/>
      <use x="218.501953" xlink:href="#DejaVuSans-101"/>
     </g>
    </g>
   </g>
   <g id="line2d_15">
    <path clip-path="url(#p3d50e6af05)" d="M 230.727273 565.756364 
L 233.220013 526.221818 
L 235.712754 545.989091 
L 238.205495 545.989091 
L 240.698235 585.523636 
L 243.190976 545.989091 
L 245.683717 526.221818 
L 248.176457 565.756364 
L 250.669198 545.989091 
L 253.161939 565.756364 
L 255.654679 545.989091 
L 258.14742 585.523636 
L 260.640161 565.756364 
L 263.132901 486.687273 
L 265.625642 585.523636 
L 268.118383 526.221818 
L 270.611124 605.290909 
L 273.103864 506.454545 
L 275.596605 466.92 
L 278.089346 526.221818 
L 280.582086 526.221818 
L 283.074827 585.523636 
L 285.567568 565.756364 
L 288.060308 486.687273 
L 290.553049 565.756364 
L 293.04579 486.687273 
L 295.53853 545.989091 
L 298.031271 545.989091 
L 300.524012 466.92 
L 303.016752 526.221818 
L 305.509493 565.756364 
L 308.002234 545.989091 
L 310.494974 565.756364 
L 312.987715 526.221818 
L 315.480456 565.756364 
L 317.973196 526.221818 
L 320.465937 565.756364 
L 322.958678 506.454545 
L 325.451418 506.454545 
L 327.944159 565.756364 
L 330.4369 466.92 
L 332.92964 526.221818 
L 335.422381 545.989091 
L 340.407862 506.454545 
L 342.900603 526.221818 
L 345.393344 526.221818 
L 347.886084 545.989091 
L 350.378825 526.221818 
L 352.871566 486.687273 
L 355.364306 506.454545 
L 357.857047 585.523636 
L 360.349788 427.385455 
L 362.842528 526.221818 
L 367.82801 526.221818 
L 370.320751 545.989091 
L 372.813491 486.687273 
L 375.306232 526.221818 
L 377.798973 427.385455 
L 380.291713 545.989091 
L 382.784454 526.221818 
L 387.769935 565.756364 
L 390.262676 545.989091 
L 395.248157 545.989091 
L 397.740898 466.92 
L 400.233639 486.687273 
L 405.21912 565.756364 
L 407.711861 545.989091 
L 410.204601 486.687273 
L 412.697342 486.687273 
L 415.190083 545.989091 
L 417.682823 526.221818 
L 422.668305 526.221818 
L 425.161045 447.152727 
L 427.653786 526.221818 
L 430.146527 486.687273 
L 432.639267 466.92 
L 435.132008 486.687273 
L 437.624749 427.385455 
L 440.117489 526.221818 
L 442.61023 466.92 
L 447.595711 466.92 
L 450.088452 545.989091 
L 452.581193 526.221818 
L 455.073933 486.687273 
L 457.566674 407.618182 
L 460.059415 526.221818 
L 462.552155 466.92 
L 465.044896 506.454545 
L 467.537637 466.92 
L 472.523118 506.454545 
L 475.015859 447.152727 
L 477.5086 466.92 
L 480.00134 466.92 
L 482.494081 447.152727 
L 484.986822 447.152727 
L 487.479562 506.454545 
L 489.972303 447.152727 
L 492.465044 466.92 
L 494.957784 387.850909 
L 497.450525 447.152727 
L 499.943266 466.92 
L 502.436006 348.316364 
L 504.928747 545.989091 
L 507.421488 368.083636 
L 509.914228 486.687273 
L 512.406969 526.221818 
L 514.89971 466.92 
L 517.39245 526.221818 
L 519.885191 348.316364 
L 522.377932 407.618182 
L 524.870672 486.687273 
L 527.363413 368.083636 
L 529.856154 486.687273 
L 532.348894 407.618182 
L 534.841635 545.989091 
L 537.334376 348.316364 
L 539.827116 368.083636 
L 542.319857 269.247273 
L 544.812598 486.687273 
L 547.305338 407.618182 
L 549.798079 407.618182 
L 552.29082 486.687273 
L 554.78356 348.316364 
L 557.276301 486.687273 
L 559.769042 486.687273 
L 562.261782 407.618182 
L 564.754523 407.618182 
L 567.247264 348.316364 
L 569.740004 506.454545 
L 572.232745 545.989091 
L 574.725486 466.92 
L 577.218226 466.92 
L 579.710967 308.781818 
L 582.203708 407.618182 
L 584.696449 447.152727 
L 587.189189 427.385455 
L 589.68193 387.850909 
L 592.174671 368.083636 
L 594.667411 368.083636 
L 597.160152 486.687273 
L 599.652893 368.083636 
L 602.145633 486.687273 
L 604.638374 229.712727 
L 607.131115 447.152727 
L 609.623855 407.618182 
L 612.116596 486.687273 
L 614.609337 427.385455 
L 617.102077 447.152727 
L 619.594818 447.152727 
L 622.087559 368.083636 
L 624.580299 328.549091 
L 627.07304 427.385455 
L 629.565781 447.152727 
L 632.058521 328.549091 
L 634.551262 407.618182 
L 637.044003 526.221818 
L 639.536743 407.618182 
L 642.029484 545.989091 
L 647.014965 427.385455 
L 649.507706 308.781818 
L 652.000447 447.152727 
L 654.493187 407.618182 
L 656.985928 308.781818 
L 659.478669 269.247273 
L 661.971409 407.618182 
L 664.46415 348.316364 
L 666.956891 486.687273 
L 669.449631 289.014545 
L 671.942372 368.083636 
L 676.927853 368.083636 
L 679.420594 269.247273 
L 681.913335 348.316364 
L 684.406075 308.781818 
L 686.898816 328.549091 
L 689.391557 308.781818 
L 691.884298 249.48 
L 694.377038 249.48 
L 696.869779 427.385455 
L 699.36252 545.989091 
L 701.85526 308.781818 
L 704.348001 289.014545 
L 706.840742 407.618182 
L 709.333482 249.48 
L 711.826223 427.385455 
L 714.318964 229.712727 
L 716.811704 289.014545 
L 719.304445 407.618182 
L 721.797186 407.618182 
L 724.289926 387.850909 
L 726.782667 506.454545 
L 729.275408 486.687273 
L 731.768148 209.945455 
L 734.260889 368.083636 
L 736.75363 289.014545 
L 739.24637 249.48 
L 741.739111 447.152727 
L 744.231852 466.92 
L 746.724592 368.083636 
L 749.217333 526.221818 
L 751.710074 328.549091 
L 754.202814 526.221818 
L 756.695555 387.850909 
L 759.188296 269.247273 
L 761.681036 368.083636 
L 764.173777 328.549091 
L 766.666518 486.687273 
L 769.159258 348.316364 
L 771.651999 269.247273 
L 774.14474 447.152727 
L 776.63748 387.850909 
L 779.130221 289.014545 
L 781.622962 447.152727 
L 784.115702 545.989091 
L 786.608443 506.454545 
L 789.101184 348.316364 
L 791.593925 269.247273 
L 794.086665 447.152727 
L 796.579406 447.152727 
L 799.072147 328.549091 
L 801.564887 308.781818 
L 804.057628 506.454545 
L 806.550369 269.247273 
L 809.043109 407.618182 
L 811.53585 447.152727 
L 814.028591 328.549091 
L 816.521331 427.385455 
L 819.014072 308.781818 
L 821.506813 209.945455 
L 823.999553 466.92 
L 826.492294 348.316364 
L 828.985035 407.618182 
L 831.477775 328.549091 
L 833.970516 407.618182 
L 836.463257 308.781818 
L 838.955997 269.247273 
L 841.448738 387.850909 
L 843.941479 308.781818 
L 846.434219 289.014545 
L 848.92696 427.385455 
L 851.419701 328.549091 
L 853.912441 506.454545 
L 856.405182 368.083636 
L 858.897923 190.178182 
L 861.390663 427.385455 
L 863.883404 368.083636 
L 866.376145 387.850909 
L 868.868885 427.385455 
L 871.361626 447.152727 
L 873.854367 328.549091 
L 876.347107 289.014545 
L 878.839848 466.92 
L 881.332589 427.385455 
L 883.825329 170.410909 
L 886.31807 289.014545 
L 888.810811 249.48 
L 891.303551 348.316364 
L 893.796292 466.92 
L 896.289033 447.152727 
L 898.781774 348.316364 
L 901.274514 348.316364 
L 903.767255 328.549091 
L 906.259996 387.850909 
L 908.752736 209.945455 
L 911.245477 368.083636 
L 913.738218 308.781818 
L 916.230958 308.781818 
L 921.21644 466.92 
L 928.694662 526.221818 
L 931.187402 328.549091 
L 933.680143 486.687273 
L 936.172884 348.316364 
L 938.665624 269.247273 
L 941.158365 387.850909 
L 943.651106 289.014545 
L 946.143846 289.014545 
L 948.636587 348.316364 
L 951.129328 387.850909 
L 953.622068 249.48 
L 956.114809 229.712727 
L 958.60755 348.316364 
L 963.593031 308.781818 
L 966.085772 368.083636 
L 968.578512 308.781818 
L 971.071253 308.781818 
L 973.563994 348.316364 
L 976.056734 348.316364 
L 978.549475 328.549091 
L 981.042216 368.083636 
L 983.534956 308.781818 
L 986.027697 289.014545 
L 988.520438 545.989091 
L 991.013178 328.549091 
L 993.505919 328.549091 
L 995.99866 368.083636 
L 998.4914 368.083636 
L 1003.476882 249.48 
L 1005.969623 229.712727 
L 1008.462363 269.247273 
L 1010.955104 368.083636 
L 1013.447845 249.48 
L 1015.940585 407.618182 
L 1018.433326 308.781818 
L 1020.926067 328.549091 
L 1023.418807 229.712727 
L 1025.911548 209.945455 
L 1028.404289 308.781818 
L 1030.897029 368.083636 
L 1033.38977 229.712727 
L 1035.882511 447.152727 
L 1038.375251 249.48 
L 1040.867992 387.850909 
L 1043.360733 506.454545 
L 1045.853473 466.92 
L 1048.346214 486.687273 
L 1050.838955 150.643636 
L 1053.331695 209.945455 
L 1055.824436 466.92 
L 1058.317177 229.712727 
L 1060.809917 209.945455 
L 1063.302658 308.781818 
L 1065.795399 209.945455 
L 1068.288139 269.247273 
L 1070.78088 348.316364 
L 1073.273621 328.549091 
L 1075.766361 289.014545 
L 1078.259102 506.454545 
L 1083.244583 269.247273 
L 1085.737324 209.945455 
L 1088.230065 209.945455 
L 1090.722805 111.109091 
L 1093.215546 229.712727 
L 1095.708287 289.014545 
L 1098.201027 308.781818 
L 1100.693768 348.316364 
L 1103.186509 229.712727 
L 1105.679249 209.945455 
L 1108.17199 289.014545 
L 1110.664731 387.850909 
L 1113.157472 229.712727 
L 1115.650212 209.945455 
L 1118.142953 111.109091 
L 1120.635694 209.945455 
L 1123.128434 526.221818 
L 1125.621175 328.549091 
L 1128.113916 368.083636 
L 1130.606656 289.014545 
L 1133.099397 249.48 
L 1135.592138 308.781818 
L 1138.084878 308.781818 
L 1140.577619 190.178182 
L 1143.07036 269.247273 
L 1145.5631 249.48 
L 1148.055841 407.618182 
L 1150.548582 308.781818 
L 1153.041322 308.781818 
L 1155.534063 407.618182 
L 1158.026804 170.410909 
L 1160.519544 289.014545 
L 1163.012285 308.781818 
L 1165.505026 308.781818 
L 1167.997766 190.178182 
L 1170.490507 269.247273 
L 1172.983248 190.178182 
L 1175.475988 249.48 
L 1177.968729 486.687273 
L 1180.46147 328.549091 
L 1182.95421 209.945455 
L 1185.446951 269.247273 
L 1187.939692 150.643636 
L 1190.432432 229.712727 
L 1192.925173 229.712727 
L 1195.417914 209.945455 
L 1197.910654 506.454545 
L 1200.403395 190.178182 
L 1202.896136 308.781818 
L 1205.388876 289.014545 
L 1207.881617 150.643636 
L 1210.374358 387.850909 
L 1212.867099 249.48 
L 1215.359839 328.549091 
L 1217.85258 170.410909 
L 1220.345321 269.247273 
L 1222.838061 348.316364 
L 1225.330802 269.247273 
L 1227.823543 150.643636 
L 1230.316283 368.083636 
L 1232.809024 209.945455 
L 1235.301765 229.712727 
L 1237.794505 229.712727 
L 1240.287246 348.316364 
L 1242.779987 209.945455 
L 1245.272727 170.410909 
L 1245.272727 170.410909 
" style="fill:none;stroke:#1f77b4;stroke-linecap:square;stroke-width:1.5;"/>
   </g>
   <g id="line2d_16">
    <path clip-path="url(#p3d50e6af05)" d="M 230.727273 565.756364 
L 233.220013 545.989091 
L 238.205495 545.989091 
L 240.698235 553.896 
L 243.190976 552.578182 
L 245.683717 548.812987 
L 248.176457 550.930909 
L 250.669198 550.381818 
L 253.161939 551.919273 
L 255.654679 551.380165 
L 258.14742 554.225455 
L 260.640161 555.112448 
L 263.132901 550.224935 
L 265.625642 552.578182 
L 268.118383 550.930909 
L 270.611124 554.128556 
L 273.103864 551.48 
L 275.596605 547.029474 
L 280.582086 545.047792 
L 283.074827 546.887603 
L 285.567568 547.707984 
L 288.060308 545.165455 
L 290.553049 545.989091 
L 293.04579 543.708252 
L 298.031271 543.871169 
L 300.524012 541.21768 
L 303.016752 540.717818 
L 305.509493 541.525513 
L 308.002234 541.665 
L 310.494974 542.395041 
L 312.987715 541.919358 
L 315.480456 542.600416 
L 317.973196 542.145455 
L 320.465937 542.783587 
L 325.451418 540.920559 
L 327.944159 541.541455 
L 330.4369 539.721419 
L 332.92964 539.4 
L 335.422381 539.553235 
L 337.915122 539.250248 
L 340.407862 538.521455 
L 345.393344 537.998066 
L 347.886084 538.164545 
L 350.378825 537.920816 
L 352.871566 536.896145 
L 355.364306 536.299251 
L 357.857047 537.245874 
L 360.349788 535.173036 
L 367.82801 534.693506 
L 370.320751 534.891675 
L 372.813491 534.060564 
L 375.306232 533.927704 
L 377.798973 532.152 
L 380.291713 532.378838 
L 382.784454 532.279531 
L 385.277195 532.497143 
L 387.769935 533.016818 
L 395.248157 533.597666 
L 397.740898 532.617112 
L 400.233639 531.951462 
L 402.726379 531.86961 
L 405.21912 532.346889 
L 407.711861 532.536364 
L 412.697342 531.297199 
L 415.190083 531.493091 
L 422.668305 531.29035 
L 425.161045 530.225316 
L 427.653786 530.175273 
L 430.146527 529.638384 
L 432.639267 528.873525 
L 435.132008 528.365257 
L 437.624749 527.163117 
L 440.117489 527.152043 
L 447.595711 525.098678 
L 450.088452 525.333401 
L 452.581193 525.343273 
L 455.073933 524.918482 
L 457.566674 523.643478 
L 460.059415 523.671202 
L 462.552155 523.067466 
L 465.044896 522.892593 
L 467.537637 522.309545 
L 470.030377 521.942306 
L 472.523118 521.784267 
L 475.015859 521.030413 
L 477.5086 520.489309 
L 480.00134 519.500945 
L 482.494081 518.710255 
L 484.986822 517.721891 
L 487.479562 517.326545 
L 489.972303 515.942836 
L 492.465044 515.152145 
L 494.957784 513.768436 
L 497.450525 512.5824 
L 499.943266 511.791709 
L 502.436006 509.617309 
L 504.928747 509.617309 
L 507.421488 507.442909 
L 509.914228 506.652218 
L 512.406969 507.047564 
L 514.89971 505.861527 
L 517.39245 505.861527 
L 519.885191 503.291782 
L 522.377932 502.303418 
L 524.870672 502.501091 
L 527.363413 500.919709 
L 529.856154 500.524364 
L 532.348894 498.745309 
L 534.841635 498.547636 
L 537.334376 497.163927 
L 539.827116 495.1872 
L 542.319857 493.0128 
L 544.812598 492.419782 
L 547.305338 491.036073 
L 549.798079 490.443055 
L 552.29082 490.047709 
L 554.78356 487.873309 
L 557.276301 487.280291 
L 559.769042 486.4896 
L 562.261782 485.303564 
L 564.754523 483.722182 
L 567.247264 481.943127 
L 569.740004 481.350109 
L 572.232745 481.745455 
L 574.725486 481.350109 
L 577.218226 480.361745 
L 579.710967 478.780364 
L 582.203708 477.594327 
L 587.189189 475.6176 
L 589.68193 474.431564 
L 594.667411 471.2688 
L 597.160152 470.675782 
L 599.652893 469.0944 
L 602.145633 469.0944 
L 604.638374 466.326982 
L 607.131115 464.943273 
L 609.623855 464.7456 
L 612.116596 464.350255 
L 614.609337 463.361891 
L 617.102077 462.5712 
L 619.594818 461.582836 
L 622.087559 460.3968 
L 624.580299 458.420073 
L 627.07304 458.420073 
L 629.565781 457.431709 
L 632.058521 455.454982 
L 634.551262 454.071273 
L 637.044003 453.675927 
L 639.536743 452.292218 
L 642.029484 452.292218 
L 644.522225 451.6992 
L 647.014965 451.303855 
L 649.507706 449.5248 
L 652.000447 448.734109 
L 654.493187 447.152727 
L 656.985928 444.780655 
L 659.478669 442.606255 
L 661.971409 441.815564 
L 664.46415 439.838836 
L 666.956891 439.443491 
L 669.449631 437.071418 
L 671.942372 435.490036 
L 674.435113 434.699345 
L 676.927853 433.117964 
L 679.420594 430.943564 
L 681.913335 429.757527 
L 684.406075 427.978473 
L 686.898816 426.990109 
L 694.377038 420.466909 
L 696.869779 420.071564 
L 699.36252 420.071564 
L 701.85526 417.897164 
L 704.348001 415.920436 
L 706.840742 415.920436 
L 709.333482 413.153018 
L 711.826223 412.757673 
L 714.318964 409.990255 
L 716.811704 408.2112 
L 719.304445 407.420509 
L 721.797186 406.432145 
L 724.289926 405.839127 
L 726.782667 406.234473 
L 729.275408 406.432145 
L 731.768148 404.060073 
L 734.260889 403.269382 
L 736.75363 401.094982 
L 739.24637 399.118255 
L 741.739111 398.920582 
L 744.231852 399.711273 
L 746.724592 398.920582 
L 749.217333 399.5136 
L 754.202814 399.118255 
L 756.695555 399.315927 
L 759.188296 397.141527 
L 761.681036 395.560145 
L 764.173777 394.176436 
L 766.666518 393.781091 
L 769.159258 393.781091 
L 771.651999 392.397382 
L 774.14474 392.002036 
L 776.63748 392.199709 
L 779.130221 390.222982 
L 781.622962 390.618327 
L 784.115702 390.618327 
L 786.608443 392.199709 
L 789.101184 392.002036 
L 791.593925 392.002036 
L 794.086665 391.606691 
L 796.579406 392.002036 
L 799.072147 391.211345 
L 801.564887 389.432291 
L 804.057628 391.013673 
L 806.550369 388.839273 
L 809.043109 388.048582 
L 811.53585 388.443927 
L 814.028591 387.653236 
L 816.521331 388.443927 
L 819.014072 386.4672 
L 821.506813 383.106764 
L 823.999553 383.106764 
L 826.492294 381.920727 
L 828.985035 382.909091 
L 831.477775 382.1184 
L 833.970516 381.723055 
L 838.955997 379.350982 
L 841.448738 379.548655 
L 843.941479 378.955636 
L 846.434219 376.978909 
L 848.92696 377.571927 
L 851.419701 375.990545 
L 853.912441 378.757964 
L 856.405182 377.967273 
L 858.897923 375.792873 
L 866.376145 374.013818 
L 868.868885 373.816145 
L 871.361626 374.606836 
L 873.854367 374.606836 
L 876.347107 373.223127 
L 878.839848 373.4208 
L 881.332589 374.409164 
L 886.31807 369.665018 
L 888.810811 368.083636 
L 891.303551 366.106909 
L 893.796292 365.909236 
L 896.289033 366.106909 
L 898.781774 366.502255 
L 901.274514 365.513891 
L 903.767255 364.7232 
L 906.259996 365.513891 
L 908.752736 364.920873 
L 913.738218 364.130182 
L 916.230958 362.351127 
L 921.21644 364.327855 
L 923.70918 365.513891 
L 926.201921 366.8976 
L 928.694662 369.467345 
L 931.187402 369.269673 
L 933.680143 371.048727 
L 936.172884 371.2464 
L 938.665624 370.851055 
L 941.158365 372.234764 
L 943.651106 372.630109 
L 946.143846 371.2464 
L 948.636587 369.269673 
L 951.129328 370.060364 
L 953.622068 369.665018 
L 956.114809 367.885964 
L 958.60755 368.874327 
L 961.10029 367.885964 
L 966.085772 369.467345 
L 971.071253 367.490618 
L 973.563994 367.095273 
L 978.549475 363.932509 
L 981.042216 365.513891 
L 983.534956 364.920873 
L 986.027697 364.920873 
L 988.520438 367.885964 
L 991.013178 366.699927 
L 993.505919 365.316218 
L 995.99866 365.316218 
L 998.4914 363.734836 
L 1000.984141 363.537164 
L 1003.476882 360.769745 
L 1005.969623 359.188364 
L 1010.955104 359.188364 
L 1015.940585 357.606982 
L 1018.433326 357.211636 
L 1020.926067 357.804655 
L 1023.418807 355.630255 
L 1025.911548 353.8512 
L 1028.404289 354.048873 
L 1030.897029 353.258182 
L 1033.38977 350.095418 
L 1035.882511 349.5024 
L 1038.375251 348.514036 
L 1040.867992 349.700073 
L 1043.360733 350.293091 
L 1045.853473 350.490764 
L 1048.346214 352.072145 
L 1050.838955 350.490764 
L 1053.331695 347.525673 
L 1055.824436 349.5024 
L 1058.317177 347.723345 
L 1060.809917 345.351273 
L 1063.302658 345.1536 
L 1065.795399 342.9792 
L 1068.288139 342.583855 
L 1070.78088 343.967564 
L 1073.273621 342.583855 
L 1075.766361 341.990836 
L 1078.259102 342.9792 
L 1080.751843 343.572218 
L 1083.244583 342.188509 
L 1085.737324 341.200145 
L 1088.230065 340.607127 
L 1090.722805 337.839709 
L 1093.215546 337.049018 
L 1095.708287 337.049018 
L 1098.201027 335.862982 
L 1100.693768 336.060655 
L 1103.186509 333.293236 
L 1105.679249 331.711855 
L 1108.17199 332.700218 
L 1110.664731 332.304873 
L 1113.157472 330.921164 
L 1115.650212 329.142109 
L 1118.142953 325.979345 
L 1120.635694 323.607273 
L 1123.128434 325.584 
L 1125.621175 325.979345 
L 1128.113916 324.990982 
L 1130.606656 323.607273 
L 1133.099397 324.397964 
L 1135.592138 324.595636 
L 1138.084878 325.188655 
L 1140.577619 323.607273 
L 1145.5631 319.653818 
L 1148.055841 320.246836 
L 1150.548582 319.851491 
L 1153.041322 319.653818 
L 1155.534063 319.851491 
L 1158.026804 319.456145 
L 1160.519544 318.665455 
L 1165.505026 318.665455 
L 1170.490507 314.712 
L 1172.983248 311.746909 
L 1175.475988 309.177164 
L 1177.968729 308.781818 
L 1180.46147 308.781818 
L 1182.95421 306.0144 
L 1185.446951 305.223709 
L 1187.939692 304.037673 
L 1190.432432 302.456291 
L 1192.925173 301.863273 
L 1195.417914 301.072582 
L 1197.910654 302.653964 
L 1200.403395 300.677236 
L 1205.388876 301.863273 
L 1207.881617 299.886545 
L 1210.374358 300.479564 
L 1212.867099 299.886545 
L 1215.359839 299.4912 
L 1217.85258 298.107491 
L 1220.345321 297.712145 
L 1222.838061 297.712145 
L 1225.330802 296.921455 
L 1227.823543 295.1424 
L 1230.316283 295.1424 
L 1232.809024 294.154036 
L 1235.301765 293.561018 
L 1237.794505 290.398255 
L 1240.287246 290.595927 
L 1242.779987 289.409891 
L 1245.272727 287.433164 
L 1245.272727 287.433164 
" style="fill:none;stroke:#ff7f0e;stroke-linecap:square;stroke-width:1.5;"/>
   </g>
   <g id="patch_3">
    <path d="M 180 630 
L 180 86.4 
" style="fill:none;stroke:#000000;stroke-linecap:square;stroke-linejoin:miter;stroke-width:0.8;"/>
   </g>
   <g id="patch_4">
    <path d="M 1296 630 
L 1296 86.4 
" style="fill:none;stroke:#000000;stroke-linecap:square;stroke-linejoin:miter;stroke-width:0.8;"/>
   </g>
   <g id="patch_5">
    <path d="M 180 630 
L 1296 630 
" style="fill:none;stroke:#000000;stroke-linecap:square;stroke-linejoin:miter;stroke-width:0.8;"/>
   </g>
   <g id="patch_6">
    <path d="M 180 86.4 
L 1296 86.4 
" style="fill:none;stroke:#000000;stroke-linecap:square;stroke-linejoin:miter;stroke-width:0.8;"/>
   </g>
   <g id="legend_1">
    <g id="patch_7">
     <path d="M 1152.901875 131.2275 
L 1287.6 131.2275 
Q 1290 131.2275 1290 128.8275 
L 1290 94.8 
Q 1290 92.4 1287.6 92.4 
L 1152.901875 92.4 
Q 1150.501875 92.4 1150.501875 94.8 
L 1150.501875 128.8275 
Q 1150.501875 131.2275 1152.901875 131.2275 
z
" style="fill:#ffffff;opacity:0.8;stroke:#cccccc;stroke-linejoin:miter;"/>
    </g>
    <g id="line2d_17">
     <path d="M 1155.301875 102.118125 
L 1179.301875 102.118125 
" style="fill:none;stroke:#1f77b4;stroke-linecap:square;stroke-width:1.5;"/>
    </g>
    <g id="line2d_18"/>
    <g id="text_17">
     <!-- Score -->
     <g transform="translate(1188.901875 106.318125)scale(0.12 -0.12)">
      <use xlink:href="#DejaVuSans-83"/>
      <use x="63.476562" xlink:href="#DejaVuSans-99"/>
      <use x="118.457031" xlink:href="#DejaVuSans-111"/>
      <use x="179.638672" xlink:href="#DejaVuSans-114"/>
      <use x="218.501953" xlink:href="#DejaVuSans-101"/>
     </g>
    </g>
    <g id="line2d_19">
     <path d="M 1155.301875 119.731875 
L 1179.301875 119.731875 
" style="fill:none;stroke:#ff7f0e;stroke-linecap:square;stroke-width:1.5;"/>
    </g>
    <g id="line2d_20"/>
    <g id="text_18">
     <!-- Moving average -->
     <g transform="translate(1188.901875 123.931875)scale(0.12 -0.12)">
      <defs>
       <path d="M 9.8125 72.90625 
L 24.515625 72.90625 
L 43.109375 23.296875 
L 61.8125 72.90625 
L 76.515625 72.90625 
L 76.515625 0 
L 66.890625 0 
L 66.890625 64.015625 
L 48.09375 14.015625 
L 38.1875 14.015625 
L 19.390625 64.015625 
L 19.390625 0 
L 9.8125 0 
z
" id="DejaVuSans-77"/>
       <path d="M 2.984375 54.6875 
L 12.5 54.6875 
L 29.59375 8.796875 
L 46.6875 54.6875 
L 56.203125 54.6875 
L 35.6875 0 
L 23.484375 0 
z
" id="DejaVuSans-118"/>
       <path d="M 54.890625 33.015625 
L 54.890625 0 
L 45.90625 0 
L 45.90625 32.71875 
Q 45.90625 40.484375 42.875 44.328125 
Q 39.84375 48.1875 33.796875 48.1875 
Q 26.515625 48.1875 22.3125 43.546875 
Q 18.109375 38.921875 18.109375 30.90625 
L 18.109375 0 
L 9.078125 0 
L 9.078125 54.6875 
L 18.109375 54.6875 
L 18.109375 46.1875 
Q 21.34375 51.125 25.703125 53.5625 
Q 30.078125 56 35.796875 56 
Q 45.21875 56 50.046875 50.171875 
Q 54.890625 44.34375 54.890625 33.015625 
z
" id="DejaVuSans-110"/>
       <path d="M 45.40625 27.984375 
Q 45.40625 37.75 41.375 43.109375 
Q 37.359375 48.484375 30.078125 48.484375 
Q 22.859375 48.484375 18.828125 43.109375 
Q 14.796875 37.75 14.796875 27.984375 
Q 14.796875 18.265625 18.828125 12.890625 
Q 22.859375 7.515625 30.078125 7.515625 
Q 37.359375 7.515625 41.375 12.890625 
Q 45.40625 18.265625 45.40625 27.984375 
z
M 54.390625 6.78125 
Q 54.390625 -7.171875 48.1875 -13.984375 
Q 42 -20.796875 29.203125 -20.796875 
Q 24.46875 -20.796875 20.265625 -20.09375 
Q 16.0625 -19.390625 12.109375 -17.921875 
L 12.109375 -9.1875 
Q 16.0625 -11.328125 19.921875 -12.34375 
Q 23.78125 -13.375 27.78125 -13.375 
Q 36.625 -13.375 41.015625 -8.765625 
Q 45.40625 -4.15625 45.40625 5.171875 
L 45.40625 9.625 
Q 42.625 4.78125 38.28125 2.390625 
Q 33.9375 0 27.875 0 
Q 17.828125 0 11.671875 7.65625 
Q 5.515625 15.328125 5.515625 27.984375 
Q 5.515625 40.671875 11.671875 48.328125 
Q 17.828125 56 27.875 56 
Q 33.9375 56 38.28125 53.609375 
Q 42.625 51.21875 45.40625 46.390625 
L 45.40625 54.6875 
L 54.390625 54.6875 
z
" id="DejaVuSans-103"/>
       <path d="M 34.28125 27.484375 
Q 23.390625 27.484375 19.1875 25 
Q 14.984375 22.515625 14.984375 16.5 
Q 14.984375 11.71875 18.140625 8.90625 
Q 21.296875 6.109375 26.703125 6.109375 
Q 34.1875 6.109375 38.703125 11.40625 
Q 43.21875 16.703125 43.21875 25.484375 
L 43.21875 27.484375 
z
M 52.203125 31.203125 
L 52.203125 0 
L 43.21875 0 
L 43.21875 8.296875 
Q 40.140625 3.328125 35.546875 0.953125 
Q 30.953125 -1.421875 24.3125 -1.421875 
Q 15.921875 -1.421875 10.953125 3.296875 
Q 6 8.015625 6 15.921875 
Q 6 25.140625 12.171875 29.828125 
Q 18.359375 34.515625 30.609375 34.515625 
L 43.21875 34.515625 
L 43.21875 35.40625 
Q 43.21875 41.609375 39.140625 45 
Q 35.0625 48.390625 27.6875 48.390625 
Q 23 48.390625 18.546875 47.265625 
Q 14.109375 46.140625 10.015625 43.890625 
L 10.015625 52.203125 
Q 14.9375 54.109375 19.578125 55.046875 
Q 24.21875 56 28.609375 56 
Q 40.484375 56 46.34375 49.84375 
Q 52.203125 43.703125 52.203125 31.203125 
z
" id="DejaVuSans-97"/>
      </defs>
      <use xlink:href="#DejaVuSans-77"/>
      <use x="86.279297" xlink:href="#DejaVuSans-111"/>
      <use x="147.460938" xlink:href="#DejaVuSans-118"/>
      <use x="206.640625" xlink:href="#DejaVuSans-105"/>
      <use x="234.423828" xlink:href="#DejaVuSans-110"/>
      <use x="297.802734" xlink:href="#DejaVuSans-103"/>
      <use x="361.279297" xlink:href="#DejaVuSans-32"/>
      <use x="393.066406" xlink:href="#DejaVuSans-97"/>
      <use x="454.345703" xlink:href="#DejaVuSans-118"/>
      <use x="513.525391" xlink:href="#DejaVuSans-101"/>
      <use x="575.048828" xlink:href="#DejaVuSans-114"/>
      <use x="616.162109" xlink:href="#DejaVuSans-97"/>
      <use x="677.441406" xlink:href="#DejaVuSans-103"/>
      <use x="740.917969" xlink:href="#DejaVuSans-101"/>
     </g>
    </g>
   </g>
  </g>
 </g>
 <defs>
  <clipPath id="p3d50e6af05">
   <rect height="543.6" width="1116" x="180" y="86.4"/>
  </clipPath>
 </defs>
</svg>
