<?xml version="1.0" encoding="utf-8" standalone="no"?>
<!DOCTYPE svg PUBLIC "-//W3C//DTD SVG 1.1//EN"
  "http://www.w3.org/Graphics/SVG/1.1/DTD/svg11.dtd">
<!-- Created with matplotlib (https://matplotlib.org/) -->
<svg height="720pt" version="1.1" viewBox="0 0 1440 720" width="1440pt" xmlns="http://www.w3.org/2000/svg" xmlns:xlink="http://www.w3.org/1999/xlink">
 <metadata>
  <rdf:RDF xmlns:cc="http://creativecommons.org/ns#" xmlns:dc="http://purl.org/dc/elements/1.1/" xmlns:rdf="http://www.w3.org/1999/02/22-rdf-syntax-ns#">
   <cc:Work>
    <dc:type rdf:resource="http://purl.org/dc/dcmitype/StillImage"/>
    <dc:date>2021-01-30T22:01:54.362644</dc:date>
    <dc:format>image/svg+xml</dc:format>
    <dc:creator>
     <cc:Agent>
      <dc:title>Matplotlib v3.3.3, https://matplotlib.org/</dc:title>
     </cc:Agent>
    </dc:creator>
   </cc:Work>
  </rdf:RDF>
 </metadata>
 <defs>
  <style type="text/css">*{stroke-linecap:butt;stroke-linejoin:round;}</style>
 </defs>
 <g id="figure_1">
  <g id="patch_1">
   <path d="M 0 720 
L 1440 720 
L 1440 0 
L 0 0 
z
" style="fill:none;"/>
  </g>
  <g id="axes_1">
   <g id="patch_2">
    <path d="M 180 630 
L 1296 630 
L 1296 86.4 
L 180 86.4 
z
" style="fill:#ffffff;"/>
   </g>
   <g id="matplotlib.axis_1">
    <g id="xtick_1">
     <g id="line2d_1">
      <defs>
       <path d="M 0 0 
L 0 3.5 
" id="mc99cbecfe0" style="stroke:#000000;stroke-width:0.8;"/>
      </defs>
      <g>
       <use style="stroke:#000000;stroke-width:0.8;" x="230.727273" xlink:href="#mc99cbecfe0" y="630"/>
      </g>
     </g>
     <g id="text_1">
      <!-- 0 -->
      <g transform="translate(227.546023 644.598438)scale(0.1 -0.1)">
       <defs>
        <path d="M 31.78125 66.40625 
Q 24.171875 66.40625 20.328125 58.90625 
Q 16.5 51.421875 16.5 36.375 
Q 16.5 21.390625 20.328125 13.890625 
Q 24.171875 6.390625 31.78125 6.390625 
Q 39.453125 6.390625 43.28125 13.890625 
Q 47.125 21.390625 47.125 36.375 
Q 47.125 51.421875 43.28125 58.90625 
Q 39.453125 66.40625 31.78125 66.40625 
z
M 31.78125 74.21875 
Q 44.046875 74.21875 50.515625 64.515625 
Q 56.984375 54.828125 56.984375 36.375 
Q 56.984375 17.96875 50.515625 8.265625 
Q 44.046875 -1.421875 31.78125 -1.421875 
Q 19.53125 -1.421875 13.0625 8.265625 
Q 6.59375 17.96875 6.59375 36.375 
Q 6.59375 54.828125 13.0625 64.515625 
Q 19.53125 74.21875 31.78125 74.21875 
z
" id="DejaVuSans-48"/>
       </defs>
       <use xlink:href="#DejaVuSans-48"/>
      </g>
     </g>
    </g>
    <g id="xtick_2">
     <g id="line2d_2">
      <g>
       <use style="stroke:#000000;stroke-width:0.8;" x="384.913512" xlink:href="#mc99cbecfe0" y="630"/>
      </g>
     </g>
     <g id="text_2">
      <!-- 200 -->
      <g transform="translate(375.369762 644.598438)scale(0.1 -0.1)">
       <defs>
        <path d="M 19.1875 8.296875 
L 53.609375 8.296875 
L 53.609375 0 
L 7.328125 0 
L 7.328125 8.296875 
Q 12.9375 14.109375 22.625 23.890625 
Q 32.328125 33.6875 34.8125 36.53125 
Q 39.546875 41.84375 41.421875 45.53125 
Q 43.3125 49.21875 43.3125 52.78125 
Q 43.3125 58.59375 39.234375 62.25 
Q 35.15625 65.921875 28.609375 65.921875 
Q 23.96875 65.921875 18.8125 64.3125 
Q 13.671875 62.703125 7.8125 59.421875 
L 7.8125 69.390625 
Q 13.765625 71.78125 18.9375 73 
Q 24.125 74.21875 28.421875 74.21875 
Q 39.75 74.21875 46.484375 68.546875 
Q 53.21875 62.890625 53.21875 53.421875 
Q 53.21875 48.921875 51.53125 44.890625 
Q 49.859375 40.875 45.40625 35.40625 
Q 44.1875 33.984375 37.640625 27.21875 
Q 31.109375 20.453125 19.1875 8.296875 
z
" id="DejaVuSans-50"/>
       </defs>
       <use xlink:href="#DejaVuSans-50"/>
       <use x="63.623047" xlink:href="#DejaVuSans-48"/>
       <use x="127.246094" xlink:href="#DejaVuSans-48"/>
      </g>
     </g>
    </g>
    <g id="xtick_3">
     <g id="line2d_3">
      <g>
       <use style="stroke:#000000;stroke-width:0.8;" x="539.099751" xlink:href="#mc99cbecfe0" y="630"/>
      </g>
     </g>
     <g id="text_3">
      <!-- 400 -->
      <g transform="translate(529.556001 644.598438)scale(0.1 -0.1)">
       <defs>
        <path d="M 37.796875 64.3125 
L 12.890625 25.390625 
L 37.796875 25.390625 
z
M 35.203125 72.90625 
L 47.609375 72.90625 
L 47.609375 25.390625 
L 58.015625 25.390625 
L 58.015625 17.1875 
L 47.609375 17.1875 
L 47.609375 0 
L 37.796875 0 
L 37.796875 17.1875 
L 4.890625 17.1875 
L 4.890625 26.703125 
z
" id="DejaVuSans-52"/>
       </defs>
       <use xlink:href="#DejaVuSans-52"/>
       <use x="63.623047" xlink:href="#DejaVuSans-48"/>
       <use x="127.246094" xlink:href="#DejaVuSans-48"/>
      </g>
     </g>
    </g>
    <g id="xtick_4">
     <g id="line2d_4">
      <g>
       <use style="stroke:#000000;stroke-width:0.8;" x="693.285991" xlink:href="#mc99cbecfe0" y="630"/>
      </g>
     </g>
     <g id="text_4">
      <!-- 600 -->
      <g transform="translate(683.742241 644.598438)scale(0.1 -0.1)">
       <defs>
        <path d="M 33.015625 40.375 
Q 26.375 40.375 22.484375 35.828125 
Q 18.609375 31.296875 18.609375 23.390625 
Q 18.609375 15.53125 22.484375 10.953125 
Q 26.375 6.390625 33.015625 6.390625 
Q 39.65625 6.390625 43.53125 10.953125 
Q 47.40625 15.53125 47.40625 23.390625 
Q 47.40625 31.296875 43.53125 35.828125 
Q 39.65625 40.375 33.015625 40.375 
z
M 52.59375 71.296875 
L 52.59375 62.3125 
Q 48.875 64.0625 45.09375 64.984375 
Q 41.3125 65.921875 37.59375 65.921875 
Q 27.828125 65.921875 22.671875 59.328125 
Q 17.53125 52.734375 16.796875 39.40625 
Q 19.671875 43.65625 24.015625 45.921875 
Q 28.375 48.1875 33.59375 48.1875 
Q 44.578125 48.1875 50.953125 41.515625 
Q 57.328125 34.859375 57.328125 23.390625 
Q 57.328125 12.15625 50.6875 5.359375 
Q 44.046875 -1.421875 33.015625 -1.421875 
Q 20.359375 -1.421875 13.671875 8.265625 
Q 6.984375 17.96875 6.984375 36.375 
Q 6.984375 53.65625 15.1875 63.9375 
Q 23.390625 74.21875 37.203125 74.21875 
Q 40.921875 74.21875 44.703125 73.484375 
Q 48.484375 72.75 52.59375 71.296875 
z
" id="DejaVuSans-54"/>
       </defs>
       <use xlink:href="#DejaVuSans-54"/>
       <use x="63.623047" xlink:href="#DejaVuSans-48"/>
       <use x="127.246094" xlink:href="#DejaVuSans-48"/>
      </g>
     </g>
    </g>
    <g id="xtick_5">
     <g id="line2d_5">
      <g>
       <use style="stroke:#000000;stroke-width:0.8;" x="847.47223" xlink:href="#mc99cbecfe0" y="630"/>
      </g>
     </g>
     <g id="text_5">
      <!-- 800 -->
      <g transform="translate(837.92848 644.598438)scale(0.1 -0.1)">
       <defs>
        <path d="M 31.78125 34.625 
Q 24.75 34.625 20.71875 30.859375 
Q 16.703125 27.09375 16.703125 20.515625 
Q 16.703125 13.921875 20.71875 10.15625 
Q 24.75 6.390625 31.78125 6.390625 
Q 38.8125 6.390625 42.859375 10.171875 
Q 46.921875 13.96875 46.921875 20.515625 
Q 46.921875 27.09375 42.890625 30.859375 
Q 38.875 34.625 31.78125 34.625 
z
M 21.921875 38.8125 
Q 15.578125 40.375 12.03125 44.71875 
Q 8.5 49.078125 8.5 55.328125 
Q 8.5 64.0625 14.71875 69.140625 
Q 20.953125 74.21875 31.78125 74.21875 
Q 42.671875 74.21875 48.875 69.140625 
Q 55.078125 64.0625 55.078125 55.328125 
Q 55.078125 49.078125 51.53125 44.71875 
Q 48 40.375 41.703125 38.8125 
Q 48.828125 37.15625 52.796875 32.3125 
Q 56.78125 27.484375 56.78125 20.515625 
Q 56.78125 9.90625 50.3125 4.234375 
Q 43.84375 -1.421875 31.78125 -1.421875 
Q 19.734375 -1.421875 13.25 4.234375 
Q 6.78125 9.90625 6.78125 20.515625 
Q 6.78125 27.484375 10.78125 32.3125 
Q 14.796875 37.15625 21.921875 38.8125 
z
M 18.3125 54.390625 
Q 18.3125 48.734375 21.84375 45.5625 
Q 25.390625 42.390625 31.78125 42.390625 
Q 38.140625 42.390625 41.71875 45.5625 
Q 45.3125 48.734375 45.3125 54.390625 
Q 45.3125 60.0625 41.71875 63.234375 
Q 38.140625 66.40625 31.78125 66.40625 
Q 25.390625 66.40625 21.84375 63.234375 
Q 18.3125 60.0625 18.3125 54.390625 
z
" id="DejaVuSans-56"/>
       </defs>
       <use xlink:href="#DejaVuSans-56"/>
       <use x="63.623047" xlink:href="#DejaVuSans-48"/>
       <use x="127.246094" xlink:href="#DejaVuSans-48"/>
      </g>
     </g>
    </g>
    <g id="xtick_6">
     <g id="line2d_6">
      <g>
       <use style="stroke:#000000;stroke-width:0.8;" x="1001.658469" xlink:href="#mc99cbecfe0" y="630"/>
      </g>
     </g>
     <g id="text_6">
      <!-- 1000 -->
      <g transform="translate(988.933469 644.598438)scale(0.1 -0.1)">
       <defs>
        <path d="M 12.40625 8.296875 
L 28.515625 8.296875 
L 28.515625 63.921875 
L 10.984375 60.40625 
L 10.984375 69.390625 
L 28.421875 72.90625 
L 38.28125 72.90625 
L 38.28125 8.296875 
L 54.390625 8.296875 
L 54.390625 0 
L 12.40625 0 
z
" id="DejaVuSans-49"/>
       </defs>
       <use xlink:href="#DejaVuSans-49"/>
       <use x="63.623047" xlink:href="#DejaVuSans-48"/>
       <use x="127.246094" xlink:href="#DejaVuSans-48"/>
       <use x="190.869141" xlink:href="#DejaVuSans-48"/>
      </g>
     </g>
    </g>
    <g id="xtick_7">
     <g id="line2d_7">
      <g>
       <use style="stroke:#000000;stroke-width:0.8;" x="1155.844708" xlink:href="#mc99cbecfe0" y="630"/>
      </g>
     </g>
     <g id="text_7">
      <!-- 1200 -->
      <g transform="translate(1143.119708 644.598438)scale(0.1 -0.1)">
       <use xlink:href="#DejaVuSans-49"/>
       <use x="63.623047" xlink:href="#DejaVuSans-50"/>
       <use x="127.246094" xlink:href="#DejaVuSans-48"/>
       <use x="190.869141" xlink:href="#DejaVuSans-48"/>
      </g>
     </g>
    </g>
    <g id="text_8">
     <!-- Episode # -->
     <g transform="translate(707.500312 659.79625)scale(0.12 -0.12)">
      <defs>
       <path d="M 9.8125 72.90625 
L 55.90625 72.90625 
L 55.90625 64.59375 
L 19.671875 64.59375 
L 19.671875 43.015625 
L 54.390625 43.015625 
L 54.390625 34.71875 
L 19.671875 34.71875 
L 19.671875 8.296875 
L 56.78125 8.296875 
L 56.78125 0 
L 9.8125 0 
z
" id="DejaVuSans-69"/>
       <path d="M 18.109375 8.203125 
L 18.109375 -20.796875 
L 9.078125 -20.796875 
L 9.078125 54.6875 
L 18.109375 54.6875 
L 18.109375 46.390625 
Q 20.953125 51.265625 25.265625 53.625 
Q 29.59375 56 35.59375 56 
Q 45.5625 56 51.78125 48.09375 
Q 58.015625 40.1875 58.015625 27.296875 
Q 58.015625 14.40625 51.78125 6.484375 
Q 45.5625 -1.421875 35.59375 -1.421875 
Q 29.59375 -1.421875 25.265625 0.953125 
Q 20.953125 3.328125 18.109375 8.203125 
z
M 48.6875 27.296875 
Q 48.6875 37.203125 44.609375 42.84375 
Q 40.53125 48.484375 33.40625 48.484375 
Q 26.265625 48.484375 22.1875 42.84375 
Q 18.109375 37.203125 18.109375 27.296875 
Q 18.109375 17.390625 22.1875 11.75 
Q 26.265625 6.109375 33.40625 6.109375 
Q 40.53125 6.109375 44.609375 11.75 
Q 48.6875 17.390625 48.6875 27.296875 
z
" id="DejaVuSans-112"/>
       <path d="M 9.421875 54.6875 
L 18.40625 54.6875 
L 18.40625 0 
L 9.421875 0 
z
M 9.421875 75.984375 
L 18.40625 75.984375 
L 18.40625 64.59375 
L 9.421875 64.59375 
z
" id="DejaVuSans-105"/>
       <path d="M 44.28125 53.078125 
L 44.28125 44.578125 
Q 40.484375 46.53125 36.375 47.5 
Q 32.28125 48.484375 27.875 48.484375 
Q 21.1875 48.484375 17.84375 46.4375 
Q 14.5 44.390625 14.5 40.28125 
Q 14.5 37.15625 16.890625 35.375 
Q 19.28125 33.59375 26.515625 31.984375 
L 29.59375 31.296875 
Q 39.15625 29.25 43.1875 25.515625 
Q 47.21875 21.78125 47.21875 15.09375 
Q 47.21875 7.46875 41.1875 3.015625 
Q 35.15625 -1.421875 24.609375 -1.421875 
Q 20.21875 -1.421875 15.453125 -0.5625 
Q 10.6875 0.296875 5.421875 2 
L 5.421875 11.28125 
Q 10.40625 8.6875 15.234375 7.390625 
Q 20.0625 6.109375 24.8125 6.109375 
Q 31.15625 6.109375 34.5625 8.28125 
Q 37.984375 10.453125 37.984375 14.40625 
Q 37.984375 18.0625 35.515625 20.015625 
Q 33.0625 21.96875 24.703125 23.78125 
L 21.578125 24.515625 
Q 13.234375 26.265625 9.515625 29.90625 
Q 5.8125 33.546875 5.8125 39.890625 
Q 5.8125 47.609375 11.28125 51.796875 
Q 16.75 56 26.8125 56 
Q 31.78125 56 36.171875 55.265625 
Q 40.578125 54.546875 44.28125 53.078125 
z
" id="DejaVuSans-115"/>
       <path d="M 30.609375 48.390625 
Q 23.390625 48.390625 19.1875 42.75 
Q 14.984375 37.109375 14.984375 27.296875 
Q 14.984375 17.484375 19.15625 11.84375 
Q 23.34375 6.203125 30.609375 6.203125 
Q 37.796875 6.203125 41.984375 11.859375 
Q 46.1875 17.53125 46.1875 27.296875 
Q 46.1875 37.015625 41.984375 42.703125 
Q 37.796875 48.390625 30.609375 48.390625 
z
M 30.609375 56 
Q 42.328125 56 49.015625 48.375 
Q 55.71875 40.765625 55.71875 27.296875 
Q 55.71875 13.875 49.015625 6.21875 
Q 42.328125 -1.421875 30.609375 -1.421875 
Q 18.84375 -1.421875 12.171875 6.21875 
Q 5.515625 13.875 5.515625 27.296875 
Q 5.515625 40.765625 12.171875 48.375 
Q 18.84375 56 30.609375 56 
z
" id="DejaVuSans-111"/>
       <path d="M 45.40625 46.390625 
L 45.40625 75.984375 
L 54.390625 75.984375 
L 54.390625 0 
L 45.40625 0 
L 45.40625 8.203125 
Q 42.578125 3.328125 38.25 0.953125 
Q 33.9375 -1.421875 27.875 -1.421875 
Q 17.96875 -1.421875 11.734375 6.484375 
Q 5.515625 14.40625 5.515625 27.296875 
Q 5.515625 40.1875 11.734375 48.09375 
Q 17.96875 56 27.875 56 
Q 33.9375 56 38.25 53.625 
Q 42.578125 51.265625 45.40625 46.390625 
z
M 14.796875 27.296875 
Q 14.796875 17.390625 18.875 11.75 
Q 22.953125 6.109375 30.078125 6.109375 
Q 37.203125 6.109375 41.296875 11.75 
Q 45.40625 17.390625 45.40625 27.296875 
Q 45.40625 37.203125 41.296875 42.84375 
Q 37.203125 48.484375 30.078125 48.484375 
Q 22.953125 48.484375 18.875 42.84375 
Q 14.796875 37.203125 14.796875 27.296875 
z
" id="DejaVuSans-100"/>
       <path d="M 56.203125 29.59375 
L 56.203125 25.203125 
L 14.890625 25.203125 
Q 15.484375 15.921875 20.484375 11.0625 
Q 25.484375 6.203125 34.421875 6.203125 
Q 39.59375 6.203125 44.453125 7.46875 
Q 49.3125 8.734375 54.109375 11.28125 
L 54.109375 2.78125 
Q 49.265625 0.734375 44.1875 -0.34375 
Q 39.109375 -1.421875 33.890625 -1.421875 
Q 20.796875 -1.421875 13.15625 6.1875 
Q 5.515625 13.8125 5.515625 26.8125 
Q 5.515625 40.234375 12.765625 48.109375 
Q 20.015625 56 32.328125 56 
Q 43.359375 56 49.78125 48.890625 
Q 56.203125 41.796875 56.203125 29.59375 
z
M 47.21875 32.234375 
Q 47.125 39.59375 43.09375 43.984375 
Q 39.0625 48.390625 32.421875 48.390625 
Q 24.90625 48.390625 20.390625 44.140625 
Q 15.875 39.890625 15.1875 32.171875 
z
" id="DejaVuSans-101"/>
       <path id="DejaVuSans-32"/>
       <path d="M 51.125 44 
L 36.921875 44 
L 32.8125 27.6875 
L 47.125 27.6875 
z
M 43.796875 71.78125 
L 38.71875 51.515625 
L 52.984375 51.515625 
L 58.109375 71.78125 
L 65.921875 71.78125 
L 60.890625 51.515625 
L 76.125 51.515625 
L 76.125 44 
L 58.984375 44 
L 54.984375 27.6875 
L 70.515625 27.6875 
L 70.515625 20.21875 
L 53.078125 20.21875 
L 48 0 
L 40.1875 0 
L 45.21875 20.21875 
L 30.90625 20.21875 
L 25.875 0 
L 18.015625 0 
L 23.09375 20.21875 
L 7.71875 20.21875 
L 7.71875 27.6875 
L 24.90625 27.6875 
L 29 44 
L 13.28125 44 
L 13.28125 51.515625 
L 30.90625 51.515625 
L 35.890625 71.78125 
z
" id="DejaVuSans-35"/>
      </defs>
      <use xlink:href="#DejaVuSans-69"/>
      <use x="63.183594" xlink:href="#DejaVuSans-112"/>
      <use x="126.660156" xlink:href="#DejaVuSans-105"/>
      <use x="154.443359" xlink:href="#DejaVuSans-115"/>
      <use x="206.542969" xlink:href="#DejaVuSans-111"/>
      <use x="267.724609" xlink:href="#DejaVuSans-100"/>
      <use x="331.201172" xlink:href="#DejaVuSans-101"/>
      <use x="392.724609" xlink:href="#DejaVuSans-32"/>
      <use x="424.511719" xlink:href="#DejaVuSans-35"/>
     </g>
    </g>
   </g>
   <g id="matplotlib.axis_2">
    <g id="ytick_1">
     <g id="line2d_8">
      <defs>
       <path d="M 0 0 
L -3.5 0 
" id="m5040dbf2e8" style="stroke:#000000;stroke-width:0.8;"/>
      </defs>
      <g>
       <use style="stroke:#000000;stroke-width:0.8;" x="180" xlink:href="#m5040dbf2e8" y="604.342384"/>
      </g>
     </g>
     <g id="text_9">
      <!-- 0.0 -->
      <g transform="translate(157.096875 608.141602)scale(0.1 -0.1)">
       <defs>
        <path d="M 10.6875 12.40625 
L 21 12.40625 
L 21 0 
L 10.6875 0 
z
" id="DejaVuSans-46"/>
       </defs>
       <use xlink:href="#DejaVuSans-48"/>
       <use x="63.623047" xlink:href="#DejaVuSans-46"/>
       <use x="95.410156" xlink:href="#DejaVuSans-48"/>
      </g>
     </g>
    </g>
    <g id="ytick_2">
     <g id="line2d_9">
      <g>
       <use style="stroke:#000000;stroke-width:0.8;" x="180" xlink:href="#m5040dbf2e8" y="509.489829"/>
      </g>
     </g>
     <g id="text_10">
      <!-- 0.5 -->
      <g transform="translate(157.096875 513.289047)scale(0.1 -0.1)">
       <defs>
        <path d="M 10.796875 72.90625 
L 49.515625 72.90625 
L 49.515625 64.59375 
L 19.828125 64.59375 
L 19.828125 46.734375 
Q 21.96875 47.46875 24.109375 47.828125 
Q 26.265625 48.1875 28.421875 48.1875 
Q 40.625 48.1875 47.75 41.5 
Q 54.890625 34.8125 54.890625 23.390625 
Q 54.890625 11.625 47.5625 5.09375 
Q 40.234375 -1.421875 26.90625 -1.421875 
Q 22.3125 -1.421875 17.546875 -0.640625 
Q 12.796875 0.140625 7.71875 1.703125 
L 7.71875 11.625 
Q 12.109375 9.234375 16.796875 8.0625 
Q 21.484375 6.890625 26.703125 6.890625 
Q 35.15625 6.890625 40.078125 11.328125 
Q 45.015625 15.765625 45.015625 23.390625 
Q 45.015625 31 40.078125 35.4375 
Q 35.15625 39.890625 26.703125 39.890625 
Q 22.75 39.890625 18.8125 39.015625 
Q 14.890625 38.140625 10.796875 36.28125 
z
" id="DejaVuSans-53"/>
       </defs>
       <use xlink:href="#DejaVuSans-48"/>
       <use x="63.623047" xlink:href="#DejaVuSans-46"/>
       <use x="95.410156" xlink:href="#DejaVuSans-53"/>
      </g>
     </g>
    </g>
    <g id="ytick_3">
     <g id="line2d_10">
      <g>
       <use style="stroke:#000000;stroke-width:0.8;" x="180" xlink:href="#m5040dbf2e8" y="414.637274"/>
      </g>
     </g>
     <g id="text_11">
      <!-- 1.0 -->
      <g transform="translate(157.096875 418.436493)scale(0.1 -0.1)">
       <use xlink:href="#DejaVuSans-49"/>
       <use x="63.623047" xlink:href="#DejaVuSans-46"/>
       <use x="95.410156" xlink:href="#DejaVuSans-48"/>
      </g>
     </g>
    </g>
    <g id="ytick_4">
     <g id="line2d_11">
      <g>
       <use style="stroke:#000000;stroke-width:0.8;" x="180" xlink:href="#m5040dbf2e8" y="319.784719"/>
      </g>
     </g>
     <g id="text_12">
      <!-- 1.5 -->
      <g transform="translate(157.096875 323.583938)scale(0.1 -0.1)">
       <use xlink:href="#DejaVuSans-49"/>
       <use x="63.623047" xlink:href="#DejaVuSans-46"/>
       <use x="95.410156" xlink:href="#DejaVuSans-53"/>
      </g>
     </g>
    </g>
    <g id="ytick_5">
     <g id="line2d_12">
      <g>
       <use style="stroke:#000000;stroke-width:0.8;" x="180" xlink:href="#m5040dbf2e8" y="224.932164"/>
      </g>
     </g>
     <g id="text_13">
      <!-- 2.0 -->
      <g transform="translate(157.096875 228.731383)scale(0.1 -0.1)">
       <use xlink:href="#DejaVuSans-50"/>
       <use x="63.623047" xlink:href="#DejaVuSans-46"/>
       <use x="95.410156" xlink:href="#DejaVuSans-48"/>
      </g>
     </g>
    </g>
    <g id="ytick_6">
     <g id="line2d_13">
      <g>
       <use style="stroke:#000000;stroke-width:0.8;" x="180" xlink:href="#m5040dbf2e8" y="130.079609"/>
      </g>
     </g>
     <g id="text_14">
      <!-- 2.5 -->
      <g transform="translate(157.096875 133.878828)scale(0.1 -0.1)">
       <use xlink:href="#DejaVuSans-50"/>
       <use x="63.623047" xlink:href="#DejaVuSans-46"/>
       <use x="95.410156" xlink:href="#DejaVuSans-53"/>
      </g>
     </g>
    </g>
    <g id="text_15">
     <!-- Score -->
     <g transform="translate(150.60125 375.002813)rotate(-90)scale(0.12 -0.12)">
      <defs>
       <path d="M 53.515625 70.515625 
L 53.515625 60.890625 
Q 47.90625 63.578125 42.921875 64.890625 
Q 37.9375 66.21875 33.296875 66.21875 
Q 25.25 66.21875 20.875 63.09375 
Q 16.5 59.96875 16.5 54.203125 
Q 16.5 49.359375 19.40625 46.890625 
Q 22.3125 44.4375 30.421875 42.921875 
L 36.375 41.703125 
Q 47.40625 39.59375 52.65625 34.296875 
Q 57.90625 29 57.90625 20.125 
Q 57.90625 9.515625 50.796875 4.046875 
Q 43.703125 -1.421875 29.984375 -1.421875 
Q 24.8125 -1.421875 18.96875 -0.25 
Q 13.140625 0.921875 6.890625 3.21875 
L 6.890625 13.375 
Q 12.890625 10.015625 18.65625 8.296875 
Q 24.421875 6.59375 29.984375 6.59375 
Q 38.421875 6.59375 43.015625 9.90625 
Q 47.609375 13.234375 47.609375 19.390625 
Q 47.609375 24.75 44.3125 27.78125 
Q 41.015625 30.8125 33.5 32.328125 
L 27.484375 33.5 
Q 16.453125 35.6875 11.515625 40.375 
Q 6.59375 45.0625 6.59375 53.421875 
Q 6.59375 63.09375 13.40625 68.65625 
Q 20.21875 74.21875 32.171875 74.21875 
Q 37.3125 74.21875 42.625 73.28125 
Q 47.953125 72.359375 53.515625 70.515625 
z
" id="DejaVuSans-83"/>
       <path d="M 48.78125 52.59375 
L 48.78125 44.1875 
Q 44.96875 46.296875 41.140625 47.34375 
Q 37.3125 48.390625 33.40625 48.390625 
Q 24.65625 48.390625 19.8125 42.84375 
Q 14.984375 37.3125 14.984375 27.296875 
Q 14.984375 17.28125 19.8125 11.734375 
Q 24.65625 6.203125 33.40625 6.203125 
Q 37.3125 6.203125 41.140625 7.25 
Q 44.96875 8.296875 48.78125 10.40625 
L 48.78125 2.09375 
Q 45.015625 0.34375 40.984375 -0.53125 
Q 36.96875 -1.421875 32.421875 -1.421875 
Q 20.0625 -1.421875 12.78125 6.34375 
Q 5.515625 14.109375 5.515625 27.296875 
Q 5.515625 40.671875 12.859375 48.328125 
Q 20.21875 56 33.015625 56 
Q 37.15625 56 41.109375 55.140625 
Q 45.0625 54.296875 48.78125 52.59375 
z
" id="DejaVuSans-99"/>
       <path d="M 41.109375 46.296875 
Q 39.59375 47.171875 37.8125 47.578125 
Q 36.03125 48 33.890625 48 
Q 26.265625 48 22.1875 43.046875 
Q 18.109375 38.09375 18.109375 28.8125 
L 18.109375 0 
L 9.078125 0 
L 9.078125 54.6875 
L 18.109375 54.6875 
L 18.109375 46.1875 
Q 20.953125 51.171875 25.484375 53.578125 
Q 30.03125 56 36.53125 56 
Q 37.453125 56 38.578125 55.875 
Q 39.703125 55.765625 41.0625 55.515625 
z
" id="DejaVuSans-114"/>
      </defs>
      <use xlink:href="#DejaVuSans-83"/>
      <use x="63.476562" xlink:href="#DejaVuSans-99"/>
      <use x="118.457031" xlink:href="#DejaVuSans-111"/>
      <use x="179.638672" xlink:href="#DejaVuSans-114"/>
      <use x="218.501953" xlink:href="#DejaVuSans-101"/>
     </g>
    </g>
   </g>
   <g id="line2d_14">
    <path clip-path="url(#p7e60d0a7a4)" d="M 230.727273 605.290909 
L 279.295938 605.290909 
L 280.066869 595.805653 
L 280.8378 605.290909 
L 455.068251 605.290909 
L 455.839182 595.805653 
L 456.610113 605.290909 
L 533.703233 605.290909 
L 534.474164 595.805653 
L 535.245095 605.290909 
L 569.166068 605.290909 
L 569.936999 595.805653 
L 570.70793 595.805653 
L 571.478862 605.290909 
L 573.020724 605.290909 
L 573.791655 595.805653 
L 574.562586 605.290909 
L 575.333518 595.805653 
L 576.104449 595.805653 
L 576.87538 605.290909 
L 623.131252 605.290909 
L 623.902183 595.805653 
L 624.673114 605.290909 
L 626.214977 605.290909 
L 626.985908 595.805653 
L 627.756839 595.805653 
L 628.52777 605.290909 
L 639.320807 605.290909 
L 640.091738 595.805653 
L 640.862669 605.290909 
L 662.448743 605.290909 
L 663.219674 595.805653 
L 663.990605 595.805653 
L 664.761536 605.290909 
L 665.532468 605.290909 
L 666.303399 595.805653 
L 667.07433 605.290909 
L 706.391821 605.290909 
L 707.162752 595.805653 
L 708.704615 595.805653 
L 709.475546 605.290909 
L 710.246477 595.805653 
L 711.017408 605.290909 
L 711.788339 586.320398 
L 712.559271 605.290909 
L 776.54656 605.290909 
L 777.317491 595.805653 
L 778.088422 605.290909 
L 778.859353 595.805653 
L 779.630285 605.290909 
L 806.612876 605.290909 
L 807.383808 595.805653 
L 808.154739 605.290909 
L 812.009395 605.290909 
L 812.780326 595.805653 
L 813.551257 605.290909 
L 815.09312 605.290909 
L 815.864051 586.320398 
L 816.634982 595.805653 
L 817.405913 595.805653 
L 818.176844 605.290909 
L 819.718707 605.290909 
L 820.489638 595.805653 
L 821.260569 605.290909 
L 822.0315 595.805653 
L 822.802432 595.805653 
L 823.573363 605.290909 
L 824.344294 586.320398 
L 825.115225 605.290909 
L 825.886156 595.805653 
L 826.657088 595.805653 
L 827.428019 605.290909 
L 828.19895 605.290909 
L 828.969881 595.805653 
L 829.740812 595.805653 
L 830.511744 605.290909 
L 831.282675 605.290909 
L 832.824537 586.320398 
L 833.595468 595.805653 
L 834.3664 586.320398 
L 835.908262 605.290909 
L 836.679193 595.805653 
L 838.221056 595.805653 
L 838.991987 605.290909 
L 839.762918 595.805653 
L 841.30478 595.805653 
L 842.075712 596.754179 
L 842.846643 595.805653 
L 850.555955 595.805653 
L 851.326886 586.320398 
L 852.097817 595.805653 
L 855.952473 595.805653 
L 856.723404 586.320398 
L 857.494335 595.805653 
L 859.036198 595.805653 
L 859.807129 586.320398 
L 860.57806 595.805653 
L 862.119923 595.805653 
L 862.890854 586.320398 
L 863.661785 595.805653 
L 864.432716 596.754179 
L 865.203647 595.805653 
L 874.454822 595.805653 
L 875.225753 605.290909 
L 875.996684 605.290909 
L 876.767615 595.805653 
L 877.538547 595.805653 
L 878.309478 586.320398 
L 879.080409 595.805653 
L 885.247859 595.805653 
L 886.01879 586.320398 
L 886.789721 595.805653 
L 905.29207 595.805653 
L 906.063001 586.320398 
L 907.604863 586.320398 
L 909.146726 567.349887 
L 909.917657 595.805653 
L 911.459519 595.805653 
L 912.23045 586.320398 
L 916.085106 586.320398 
L 916.856038 595.805653 
L 920.710694 595.805653 
L 921.481625 586.320398 
L 922.252556 586.320398 
L 923.023487 576.835142 
L 923.794418 586.320398 
L 924.56535 576.835142 
L 925.336281 595.805653 
L 926.107212 605.290909 
L 926.878143 586.320398 
L 927.649074 595.805653 
L 928.420006 595.805653 
L 929.190937 586.320398 
L 929.961868 595.805653 
L 930.732799 586.320398 
L 931.50373 595.805653 
L 933.045593 576.835142 
L 934.587455 595.805653 
L 935.358386 567.349887 
L 936.129317 586.320398 
L 936.900249 595.805653 
L 937.67118 586.320398 
L 938.442111 595.805653 
L 939.213042 586.320398 
L 939.983973 595.805653 
L 940.754905 595.805653 
L 941.525836 576.835142 
L 942.296767 576.835142 
L 943.067698 595.805653 
L 944.609561 595.805653 
L 945.380492 586.320398 
L 946.151423 595.805653 
L 955.402597 595.805653 
L 956.94446 576.835142 
L 958.486322 595.805653 
L 959.257253 586.320398 
L 960.799116 586.320398 
L 961.570047 595.805653 
L 962.340978 567.349887 
L 963.111909 586.320398 
L 966.195634 586.320398 
L 966.966565 595.805653 
L 968.508428 576.835142 
L 969.279359 586.320398 
L 970.05029 576.835142 
L 970.821221 576.835142 
L 972.363084 595.805653 
L 977.759602 595.805653 
L 978.530533 576.835142 
L 979.301464 595.805653 
L 980.843327 595.805653 
L 981.614258 586.320398 
L 983.927052 586.320398 
L 984.697983 595.805653 
L 985.468914 595.805653 
L 986.239845 586.320398 
L 987.010776 595.805653 
L 987.781708 586.320398 
L 988.552639 586.320398 
L 989.32357 576.835142 
L 990.094501 576.835142 
L 991.636364 595.805653 
L 993.178226 576.835142 
L 993.949157 586.320398 
L 994.720088 586.320398 
L 995.49102 595.805653 
L 996.261951 595.805653 
L 997.803813 576.835142 
L 998.574744 586.320398 
L 999.345676 576.835142 
L 1000.887538 576.835142 
L 1001.658469 595.805653 
L 1003.200332 576.835142 
L 1003.971263 595.805653 
L 1005.513125 576.835142 
L 1006.284056 529.408864 
L 1007.054988 595.805653 
L 1007.825919 595.805653 
L 1008.59685 576.835142 
L 1010.138712 557.864631 
L 1010.909644 576.835142 
L 1011.680575 576.835142 
L 1012.451506 595.805653 
L 1013.222437 576.835142 
L 1013.993368 576.835142 
L 1014.7643 595.805653 
L 1015.535231 595.805653 
L 1016.306162 576.835142 
L 1017.077093 586.320398 
L 1017.848024 576.835142 
L 1018.618956 576.835142 
L 1019.389887 595.805653 
L 1020.160818 595.805653 
L 1020.931749 567.349887 
L 1021.70268 595.805653 
L 1022.473611 586.320398 
L 1024.015474 586.320398 
L 1024.786405 595.805653 
L 1026.328267 576.835142 
L 1027.099199 595.805653 
L 1028.641061 576.835142 
L 1029.411992 557.864631 
L 1030.182923 595.805653 
L 1030.953855 557.864631 
L 1031.724786 586.320398 
L 1033.266648 567.349887 
L 1034.808511 567.349887 
L 1035.579442 595.805653 
L 1037.121304 595.805653 
L 1038.663167 576.835142 
L 1039.434098 595.805653 
L 1045.601547 595.805653 
L 1046.372479 576.835142 
L 1047.914341 595.805653 
L 1048.685272 586.320398 
L 1049.456203 595.805653 
L 1050.998066 595.805653 
L 1051.768997 587.268923 
L 1052.539928 595.805653 
L 1053.310859 586.320398 
L 1054.081791 595.805653 
L 1057.936447 595.805653 
L 1058.707378 576.835142 
L 1059.478309 605.290909 
L 1060.24924 576.835142 
L 1061.020171 595.805653 
L 1061.791103 567.349887 
L 1062.562034 576.835142 
L 1063.332965 595.805653 
L 1064.103896 586.320398 
L 1064.874827 595.805653 
L 1066.41669 576.835142 
L 1067.187621 557.864631 
L 1067.958552 567.349887 
L 1068.729483 595.805653 
L 1070.271346 595.805653 
L 1071.042277 587.268923 
L 1071.813208 595.805653 
L 1072.584139 595.805653 
L 1073.35507 576.835142 
L 1074.126002 595.805653 
L 1092.62835 595.805653 
L 1094.170213 576.835142 
L 1094.941144 595.805653 
L 1101.879525 595.805653 
L 1102.650456 586.320398 
L 1103.421387 595.805653 
L 1106.505112 595.805653 
L 1107.276043 605.290909 
L 1108.046974 595.805653 
L 1108.817905 595.805653 
L 1109.588837 576.835142 
L 1110.359768 567.349887 
L 1111.130699 586.320398 
L 1111.90163 595.805653 
L 1112.672561 595.805653 
L 1113.443493 519.923608 
L 1114.214424 595.805653 
L 1119.610942 595.805653 
L 1120.381873 576.835142 
L 1121.152805 595.805653 
L 1125.007461 595.805653 
L 1125.778392 576.835142 
L 1126.549323 595.805653 
L 1128.091185 595.805653 
L 1128.862117 567.349887 
L 1129.633048 586.320398 
L 1130.403979 586.320398 
L 1131.17491 595.805653 
L 1131.945841 595.805653 
L 1133.487704 576.835142 
L 1134.258635 586.320398 
L 1135.029566 557.864631 
L 1135.800497 586.320398 
L 1136.571429 595.805653 
L 1137.34236 586.320398 
L 1138.113291 595.805653 
L 1138.884222 595.805653 
L 1139.655153 567.349887 
L 1140.426085 586.320398 
L 1141.197016 557.864631 
L 1141.967947 586.320398 
L 1142.738878 538.89412 
L 1143.509809 595.805653 
L 1144.280741 538.89412 
L 1145.051672 500.953097 
L 1145.822603 595.805653 
L 1146.593534 567.349887 
L 1147.364465 453.526819 
L 1148.135397 586.320398 
L 1148.906328 576.835142 
L 1149.677259 576.835142 
L 1150.44819 491.467842 
L 1151.219121 557.864631 
L 1151.990053 576.835142 
L 1155.073777 576.835142 
L 1155.844708 491.467842 
L 1156.61564 481.982586 
L 1157.386571 586.320398 
L 1158.157502 595.805653 
L 1158.928433 595.805653 
L 1160.470296 557.864631 
L 1161.241227 500.953097 
L 1162.012158 595.805653 
L 1162.783089 548.379375 
L 1163.55402 481.982586 
L 1165.866814 595.805653 
L 1166.637745 576.835142 
L 1167.408676 529.408864 
L 1168.179608 576.835142 
L 1169.72147 576.835142 
L 1170.492401 529.408864 
L 1171.263332 595.805653 
L 1172.034264 576.835142 
L 1172.805195 548.379375 
L 1173.576126 557.864631 
L 1174.347057 595.805653 
L 1175.117988 595.805653 
L 1175.88892 576.835142 
L 1176.659851 529.408864 
L 1177.430782 586.320398 
L 1178.201713 586.320398 
L 1178.972644 538.89412 
L 1179.743576 586.320398 
L 1180.514507 510.438353 
L 1181.285438 567.349887 
L 1182.056369 586.320398 
L 1182.8273 529.408864 
L 1183.598232 519.923608 
L 1184.369163 576.835142 
L 1185.140094 586.320398 
L 1185.911025 567.349887 
L 1186.681956 538.89412 
L 1187.452888 529.408864 
L 1188.223819 567.349887 
L 1188.99475 500.953097 
L 1189.765681 472.49733 
L 1190.536612 576.835142 
L 1191.307544 311.247985 
L 1192.078475 472.49733 
L 1193.620337 548.379375 
L 1195.1622 529.408864 
L 1195.933131 567.349887 
L 1196.704062 586.320398 
L 1197.474993 567.349887 
L 1198.245924 444.041563 
L 1199.016855 586.320398 
L 1199.787787 586.320398 
L 1200.558718 273.306962 
L 1201.329649 453.526819 
L 1202.10058 595.805653 
L 1202.871511 586.320398 
L 1203.642443 538.89412 
L 1204.413374 586.320398 
L 1205.184305 339.703752 
L 1205.955236 586.320398 
L 1206.726167 519.923608 
L 1207.497099 225.880684 
L 1208.26803 444.041563 
L 1209.038961 576.835142 
L 1209.809892 529.408864 
L 1210.580823 415.585797 
L 1212.122686 595.805653 
L 1212.893617 548.379375 
L 1213.664548 510.438353 
L 1214.435479 586.320398 
L 1215.206411 567.349887 
L 1215.977342 576.835142 
L 1216.748273 595.805653 
L 1217.519204 481.982586 
L 1218.290135 463.012075 
L 1219.061067 339.703752 
L 1219.831998 529.408864 
L 1220.602929 472.49733 
L 1221.37386 576.835142 
L 1222.144791 368.159518 
L 1222.915723 595.805653 
L 1223.686654 330.218496 
L 1224.457585 406.100541 
L 1225.228516 567.349887 
L 1225.999447 548.379375 
L 1226.770379 576.835142 
L 1227.54131 548.379375 
L 1228.312241 377.644774 
L 1229.083172 444.041563 
L 1229.854103 444.041563 
L 1230.625035 529.408864 
L 1231.395966 595.805653 
L 1232.166897 111.109091 
L 1232.937828 567.349887 
L 1233.708759 595.805653 
L 1234.479691 567.349887 
L 1235.250622 472.49733 
L 1236.021553 586.320398 
L 1236.792484 576.835142 
L 1237.563415 120.594347 
L 1238.334347 576.835142 
L 1239.105278 519.923608 
L 1239.876209 586.320398 
L 1240.64714 111.109091 
L 1241.418071 595.805653 
L 1242.189002 567.349887 
L 1242.959934 178.454406 
L 1243.730865 529.408864 
L 1244.501796 576.835142 
L 1245.272727 206.910173 
L 1245.272727 206.910173 
" style="fill:none;stroke:#1f77b4;stroke-linecap:square;stroke-width:1.5;"/>
   </g>
   <g id="line2d_15">
    <path clip-path="url(#p7e60d0a7a4)" d="M 230.727273 605.290909 
L 279.295938 605.290909 
L 280.066869 605.144982 
L 336.344847 605.196057 
L 569.936999 605.101204 
L 571.478862 605.006351 
L 574.562586 604.911499 
L 576.87538 604.721794 
L 626.985908 604.626941 
L 628.52777 604.532089 
L 650.113844 604.626941 
L 653.197568 604.911499 
L 663.219674 604.816646 
L 664.761536 604.721794 
L 704.079027 604.816646 
L 705.62089 604.911499 
L 707.162752 604.816646 
L 710.246477 604.532089 
L 711.017408 604.532089 
L 711.788339 604.342384 
L 739.541862 604.437236 
L 741.854656 604.626941 
L 785.026803 604.721794 
L 787.339597 604.911499 
L 788.110528 604.911499 
L 788.881459 605.101204 
L 812.009395 605.006351 
L 813.551257 604.911499 
L 815.09312 604.911499 
L 816.634982 604.626941 
L 818.176844 604.532089 
L 821.260569 604.437236 
L 826.657088 603.868121 
L 828.969881 603.773268 
L 830.511744 603.678416 
L 832.053606 603.583563 
L 834.3664 603.1093 
L 838.221056 602.72989 
L 839.762918 602.635038 
L 862.119923 599.798946 
L 863.661785 599.514388 
L 872.912959 598.385643 
L 875.225753 598.195938 
L 876.767615 598.101085 
L 892.186239 596.204034 
L 893.728102 596.298887 
L 895.269964 596.204034 
L 898.353689 595.919477 
L 903.750207 595.824624 
L 907.604863 595.255509 
L 909.146726 594.686393 
L 911.459519 594.876098 
L 915.314175 594.306983 
L 916.085106 594.117278 
L 921.481625 594.01294 
L 923.794418 593.63353 
L 924.56535 593.443825 
L 931.50373 593.348972 
L 937.67118 592.685004 
L 940.754905 592.685004 
L 942.296767 592.296109 
L 951.547941 592.201256 
L 953.860735 592.011551 
L 956.173529 592.011551 
L 957.715391 591.726994 
L 959.257253 591.632141 
L 970.05029 590.209353 
L 971.592153 589.924795 
L 977.759602 589.924795 
L 978.530533 589.73509 
L 981.614258 589.640237 
L 983.15612 589.545385 
L 984.697983 589.640237 
L 986.239845 590.019648 
L 987.781708 589.924795 
L 990.865432 589.640237 
L 992.407295 589.73509 
L 995.49102 589.450532 
L 997.032882 589.35568 
L 997.803813 589.165975 
L 1000.116607 589.071122 
L 1000.887538 588.976269 
L 1001.658469 589.165975 
L 1002.4294 589.071122 
L 1003.200332 588.786564 
L 1003.971263 588.881417 
L 1005.513125 588.596859 
L 1006.284056 588.027744 
L 1008.59685 587.932891 
L 1011.680575 587.268923 
L 1012.451506 587.553481 
L 1014.7643 587.363776 
L 1016.306162 587.268923 
L 1018.618956 586.984366 
L 1019.389887 587.174071 
L 1020.160818 587.174071 
L 1020.931749 586.889513 
L 1023.244543 586.794661 
L 1028.641061 586.130693 
L 1029.411992 585.751282 
L 1030.182923 585.751282 
L 1030.953855 585.371872 
L 1032.495717 585.087315 
L 1034.808511 584.613052 
L 1036.350373 584.707904 
L 1037.892235 584.802757 
L 1038.663167 584.613052 
L 1039.434098 584.897609 
L 1045.601547 585.65643 
L 1046.372479 585.561577 
L 1049.456203 585.846135 
L 1052.539928 585.760768 
L 1054.081791 585.665915 
L 1054.852722 585.665915 
L 1055.623653 585.85562 
L 1061.020171 585.950473 
L 1062.562034 585.47621 
L 1063.332965 585.571063 
L 1064.103896 585.47621 
L 1065.645758 585.571063 
L 1066.41669 585.571063 
L 1067.958552 585.191652 
L 1069.500414 585.286505 
L 1070.271346 585.47621 
L 1072.584139 585.580548 
L 1073.35507 585.390843 
L 1075.667864 585.770253 
L 1077.980658 586.339368 
L 1079.52252 586.434221 
L 1080.293451 586.623926 
L 1081.835314 586.718779 
L 1082.606245 586.908484 
L 1083.377176 587.572452 
L 1084.919038 587.572452 
L 1086.460901 588.046714 
L 1087.231832 588.426125 
L 1088.773694 588.805535 
L 1089.544626 588.805535 
L 1091.086488 589.184945 
L 1094.170213 589.184945 
L 1095.712075 589.564355 
L 1097.253938 589.564355 
L 1098.024869 589.848913 
L 1099.566731 589.943765 
L 1101.879525 590.133471 
L 1102.650456 590.133471 
L 1103.421387 590.323176 
L 1104.96325 590.418028 
L 1105.734181 590.607733 
L 1106.505112 590.987144 
L 1107.276043 591.081996 
L 1108.046974 591.461406 
L 1109.588837 591.556259 
L 1110.359768 591.556259 
L 1112.672561 592.030522 
L 1113.443493 591.271701 
L 1114.985355 591.366554 
L 1115.756286 591.556259 
L 1119.610942 591.556259 
L 1120.381873 591.366554 
L 1122.694667 591.366554 
L 1124.236529 591.651111 
L 1128.091185 591.556259 
L 1129.633048 591.262216 
L 1132.716773 591.167363 
L 1135.029566 590.503396 
L 1135.800497 590.598248 
L 1136.571429 590.503396 
L 1139.655153 590.787953 
L 1140.426085 590.693101 
L 1141.197016 590.408543 
L 1141.967947 590.31369 
L 1142.738878 589.839428 
L 1143.509809 590.029133 
L 1144.280741 589.839428 
L 1145.051672 589.17546 
L 1145.822603 589.17546 
L 1146.593534 588.890902 
L 1147.364465 587.468114 
L 1148.135397 587.458629 
L 1149.677259 587.079218 
L 1150.44819 586.225545 
L 1151.219121 585.846135 
L 1155.073777 584.897609 
L 1156.61564 582.716001 
L 1158.157502 582.621148 
L 1158.928433 582.621148 
L 1159.699364 582.431443 
L 1160.470296 582.052033 
L 1161.241227 581.103507 
L 1162.012158 581.103507 
L 1162.783089 580.629244 
L 1163.55402 579.491014 
L 1164.324952 578.732193 
L 1165.095883 578.352783 
L 1165.866814 578.352783 
L 1166.637745 578.163078 
L 1167.408676 577.49911 
L 1169.72147 576.929995 
L 1170.492401 576.360879 
L 1171.263332 576.550585 
L 1172.034264 576.360879 
L 1173.576126 575.507206 
L 1175.117988 575.507206 
L 1175.88892 575.317501 
L 1176.659851 574.653533 
L 1178.201713 574.463828 
L 1178.972644 573.894713 
L 1179.743576 573.894713 
L 1180.514507 573.04104 
L 1181.285438 572.756482 
L 1182.056369 572.66163 
L 1183.598232 571.238841 
L 1184.369163 570.954284 
L 1185.140094 570.859431 
L 1186.681956 570.195463 
L 1187.452888 569.816053 
L 1188.223819 569.626348 
L 1188.99475 568.677822 
L 1189.765681 567.444739 
L 1190.536612 568.013854 
L 1191.307544 565.168278 
L 1192.078475 563.935195 
L 1192.849406 563.081522 
L 1194.391268 562.038143 
L 1195.1622 561.374176 
L 1195.933131 561.089618 
L 1197.474993 560.899913 
L 1198.245924 559.382272 
L 1199.787787 559.192567 
L 1200.558718 555.96758 
L 1201.329649 554.544791 
L 1202.871511 554.639644 
L 1203.642443 554.070529 
L 1204.413374 553.975676 
L 1205.184305 551.414657 
L 1205.955236 551.604362 
L 1206.726167 550.940394 
L 1207.497099 547.335997 
L 1208.26803 545.818356 
L 1209.038961 545.628651 
L 1209.809892 545.059536 
L 1210.580823 543.447042 
L 1211.351755 542.593369 
L 1212.122686 542.97278 
L 1212.893617 542.593369 
L 1213.664548 541.739696 
L 1214.435479 541.739696 
L 1215.977342 541.265434 
L 1216.748273 541.549991 
L 1218.290135 539.558088 
L 1219.061067 537.091921 
L 1219.831998 536.997069 
L 1220.602929 535.763985 
L 1221.37386 536.143396 
L 1222.144791 534.81546 
L 1222.915723 534.81546 
L 1223.686654 532.444146 
L 1224.457585 531.969883 
L 1226.770379 531.49562 
L 1227.54131 532.064736 
L 1228.312241 530.262537 
L 1229.854103 527.606665 
L 1230.625035 527.132403 
L 1231.395966 527.322108 
L 1232.166897 522.664847 
L 1232.937828 523.423668 
L 1233.708759 524.561898 
L 1234.479691 524.372193 
L 1235.250622 523.13911 
L 1236.792484 523.044258 
L 1237.563415 518.671555 
L 1238.334347 519.430375 
L 1239.105278 518.671555 
L 1239.876209 519.050965 
L 1240.64714 515.34223 
L 1241.418071 516.10105 
L 1242.189002 516.195903 
L 1242.959934 512.022391 
L 1243.730865 511.548128 
L 1244.501796 512.022391 
L 1245.272727 508.323141 
L 1245.272727 508.323141 
" style="fill:none;stroke:#ff7f0e;stroke-linecap:square;stroke-width:1.5;"/>
   </g>
   <g id="patch_3">
    <path d="M 180 630 
L 180 86.4 
" style="fill:none;stroke:#000000;stroke-linecap:square;stroke-linejoin:miter;stroke-width:0.8;"/>
   </g>
   <g id="patch_4">
    <path d="M 1296 630 
L 1296 86.4 
" style="fill:none;stroke:#000000;stroke-linecap:square;stroke-linejoin:miter;stroke-width:0.8;"/>
   </g>
   <g id="patch_5">
    <path d="M 180 630 
L 1296 630 
" style="fill:none;stroke:#000000;stroke-linecap:square;stroke-linejoin:miter;stroke-width:0.8;"/>
   </g>
   <g id="patch_6">
    <path d="M 180 86.4 
L 1296 86.4 
" style="fill:none;stroke:#000000;stroke-linecap:square;stroke-linejoin:miter;stroke-width:0.8;"/>
   </g>
   <g id="legend_1">
    <g id="patch_7">
     <path d="M 188.4 131.2275 
L 323.098125 131.2275 
Q 325.498125 131.2275 325.498125 128.8275 
L 325.498125 94.8 
Q 325.498125 92.4 323.098125 92.4 
L 188.4 92.4 
Q 186 92.4 186 94.8 
L 186 128.8275 
Q 186 131.2275 188.4 131.2275 
z
" style="fill:#ffffff;opacity:0.8;stroke:#cccccc;stroke-linejoin:miter;"/>
    </g>
    <g id="line2d_16">
     <path d="M 190.8 102.118125 
L 214.8 102.118125 
" style="fill:none;stroke:#1f77b4;stroke-linecap:square;stroke-width:1.5;"/>
    </g>
    <g id="line2d_17"/>
    <g id="text_16">
     <!-- Score -->
     <g transform="translate(224.4 106.318125)scale(0.12 -0.12)">
      <use xlink:href="#DejaVuSans-83"/>
      <use x="63.476562" xlink:href="#DejaVuSans-99"/>
      <use x="118.457031" xlink:href="#DejaVuSans-111"/>
      <use x="179.638672" xlink:href="#DejaVuSans-114"/>
      <use x="218.501953" xlink:href="#DejaVuSans-101"/>
     </g>
    </g>
    <g id="line2d_18">
     <path d="M 190.8 119.731875 
L 214.8 119.731875 
" style="fill:none;stroke:#ff7f0e;stroke-linecap:square;stroke-width:1.5;"/>
    </g>
    <g id="line2d_19"/>
    <g id="text_17">
     <!-- Moving average -->
     <g transform="translate(224.4 123.931875)scale(0.12 -0.12)">
      <defs>
       <path d="M 9.8125 72.90625 
L 24.515625 72.90625 
L 43.109375 23.296875 
L 61.8125 72.90625 
L 76.515625 72.90625 
L 76.515625 0 
L 66.890625 0 
L 66.890625 64.015625 
L 48.09375 14.015625 
L 38.1875 14.015625 
L 19.390625 64.015625 
L 19.390625 0 
L 9.8125 0 
z
" id="DejaVuSans-77"/>
       <path d="M 2.984375 54.6875 
L 12.5 54.6875 
L 29.59375 8.796875 
L 46.6875 54.6875 
L 56.203125 54.6875 
L 35.6875 0 
L 23.484375 0 
z
" id="DejaVuSans-118"/>
       <path d="M 54.890625 33.015625 
L 54.890625 0 
L 45.90625 0 
L 45.90625 32.71875 
Q 45.90625 40.484375 42.875 44.328125 
Q 39.84375 48.1875 33.796875 48.1875 
Q 26.515625 48.1875 22.3125 43.546875 
Q 18.109375 38.921875 18.109375 30.90625 
L 18.109375 0 
L 9.078125 0 
L 9.078125 54.6875 
L 18.109375 54.6875 
L 18.109375 46.1875 
Q 21.34375 51.125 25.703125 53.5625 
Q 30.078125 56 35.796875 56 
Q 45.21875 56 50.046875 50.171875 
Q 54.890625 44.34375 54.890625 33.015625 
z
" id="DejaVuSans-110"/>
       <path d="M 45.40625 27.984375 
Q 45.40625 37.75 41.375 43.109375 
Q 37.359375 48.484375 30.078125 48.484375 
Q 22.859375 48.484375 18.828125 43.109375 
Q 14.796875 37.75 14.796875 27.984375 
Q 14.796875 18.265625 18.828125 12.890625 
Q 22.859375 7.515625 30.078125 7.515625 
Q 37.359375 7.515625 41.375 12.890625 
Q 45.40625 18.265625 45.40625 27.984375 
z
M 54.390625 6.78125 
Q 54.390625 -7.171875 48.1875 -13.984375 
Q 42 -20.796875 29.203125 -20.796875 
Q 24.46875 -20.796875 20.265625 -20.09375 
Q 16.0625 -19.390625 12.109375 -17.921875 
L 12.109375 -9.1875 
Q 16.0625 -11.328125 19.921875 -12.34375 
Q 23.78125 -13.375 27.78125 -13.375 
Q 36.625 -13.375 41.015625 -8.765625 
Q 45.40625 -4.15625 45.40625 5.171875 
L 45.40625 9.625 
Q 42.625 4.78125 38.28125 2.390625 
Q 33.9375 0 27.875 0 
Q 17.828125 0 11.671875 7.65625 
Q 5.515625 15.328125 5.515625 27.984375 
Q 5.515625 40.671875 11.671875 48.328125 
Q 17.828125 56 27.875 56 
Q 33.9375 56 38.28125 53.609375 
Q 42.625 51.21875 45.40625 46.390625 
L 45.40625 54.6875 
L 54.390625 54.6875 
z
" id="DejaVuSans-103"/>
       <path d="M 34.28125 27.484375 
Q 23.390625 27.484375 19.1875 25 
Q 14.984375 22.515625 14.984375 16.5 
Q 14.984375 11.71875 18.140625 8.90625 
Q 21.296875 6.109375 26.703125 6.109375 
Q 34.1875 6.109375 38.703125 11.40625 
Q 43.21875 16.703125 43.21875 25.484375 
L 43.21875 27.484375 
z
M 52.203125 31.203125 
L 52.203125 0 
L 43.21875 0 
L 43.21875 8.296875 
Q 40.140625 3.328125 35.546875 0.953125 
Q 30.953125 -1.421875 24.3125 -1.421875 
Q 15.921875 -1.421875 10.953125 3.296875 
Q 6 8.015625 6 15.921875 
Q 6 25.140625 12.171875 29.828125 
Q 18.359375 34.515625 30.609375 34.515625 
L 43.21875 34.515625 
L 43.21875 35.40625 
Q 43.21875 41.609375 39.140625 45 
Q 35.0625 48.390625 27.6875 48.390625 
Q 23 48.390625 18.546875 47.265625 
Q 14.109375 46.140625 10.015625 43.890625 
L 10.015625 52.203125 
Q 14.9375 54.109375 19.578125 55.046875 
Q 24.21875 56 28.609375 56 
Q 40.484375 56 46.34375 49.84375 
Q 52.203125 43.703125 52.203125 31.203125 
z
" id="DejaVuSans-97"/>
      </defs>
      <use xlink:href="#DejaVuSans-77"/>
      <use x="86.279297" xlink:href="#DejaVuSans-111"/>
      <use x="147.460938" xlink:href="#DejaVuSans-118"/>
      <use x="206.640625" xlink:href="#DejaVuSans-105"/>
      <use x="234.423828" xlink:href="#DejaVuSans-110"/>
      <use x="297.802734" xlink:href="#DejaVuSans-103"/>
      <use x="361.279297" xlink:href="#DejaVuSans-32"/>
      <use x="393.066406" xlink:href="#DejaVuSans-97"/>
      <use x="454.345703" xlink:href="#DejaVuSans-118"/>
      <use x="513.525391" xlink:href="#DejaVuSans-101"/>
      <use x="575.048828" xlink:href="#DejaVuSans-114"/>
      <use x="616.162109" xlink:href="#DejaVuSans-97"/>
      <use x="677.441406" xlink:href="#DejaVuSans-103"/>
      <use x="740.917969" xlink:href="#DejaVuSans-101"/>
     </g>
    </g>
   </g>
  </g>
 </g>
 <defs>
  <clipPath id="p7e60d0a7a4">
   <rect height="543.6" width="1116" x="180" y="86.4"/>
  </clipPath>
 </defs>
</svg>
